<svg width="39" height="33" viewBox="0 0 39 33" fill="none" xmlns="http://www.w3.org/2000/svg">
<path d="M2.925 32.3047C2.145 32.3047 1.4625 32.0047 0.8775 31.4047C0.2925 30.8047 0 30.1047 0 29.3047V3.30469C0 2.50469 0.2925 1.80469 0.8775 1.20469C1.4625 0.604687 2.145 0.304688 2.925 0.304688H36.075C36.855 0.304688 37.5375 0.604687 38.1225 1.20469C38.7075 1.80469 39 2.50469 39 3.30469V29.3047C39 30.1047 38.7075 30.8047 38.1225 31.4047C37.5375 32.0047 36.855 32.3047 36.075 32.3047H2.925ZM19.5 17.2047L36.075 6.05469V3.30469L19.5 14.2047L2.925 3.30469V6.05469L19.5 17.2047Z" fill="#222222"/>
</svg>
