<svg width="162" height="162" viewBox="0 0 162 162" fill="none" xmlns="http://www.w3.org/2000/svg">
<path fill-rule="evenodd" clip-rule="evenodd" d="M23.0164 65.4433L10.8357 44.3362C9.78105 42.5037 10.4138 40.1702 12.2462 39.1155C12.8526 38.7727 13.4985 38.6013 14.1577 38.6013V38.5881H38.5718V14.0665C38.5718 11.944 40.2987 10.2169 42.4211 10.2169C43.2253 10.2169 43.9635 10.4674 44.5831 10.8761L65.438 23.0051L77.6846 1.91119C78.7524 0.0786656 81.0989 -0.540967 82.9181 0.513726C83.5245 0.869685 83.999 1.35748 84.3286 1.93756L96.5621 23.0051L117.654 10.7311C119.487 9.66319 121.833 10.296 122.888 12.1285C123.244 12.735 123.402 13.3942 123.402 14.0533L123.415 38.575H147.935C150.057 38.575 151.784 40.302 151.784 42.4246C151.784 43.2288 151.533 43.9671 151.125 44.5867L138.997 65.4433L160.089 77.6909C161.921 78.7588 162.541 81.1055 161.486 82.9248C161.13 83.5313 160.643 84.0059 160.063 84.3355L138.997 96.5699L151.27 117.664C152.338 119.496 151.705 121.843 149.872 122.898C149.266 123.254 148.607 123.412 147.948 123.412L123.428 123.425V147.841C123.428 149.964 121.701 151.691 119.579 151.691C118.748 151.691 117.984 151.427 117.351 150.979L96.5621 138.982L84.3154 160.089C83.2476 161.921 80.9011 162.541 79.0819 161.486C78.4755 161.13 78.001 160.643 77.6714 160.062L65.438 138.982L44.3326 151.163C42.5002 152.218 40.1669 151.585 39.1123 149.753C38.7696 149.146 38.5982 148.5 38.5982 147.841H38.585V123.438H14.1577C12.0353 123.438 10.3084 121.711 10.3084 119.589C10.3084 118.758 10.572 117.993 11.0202 117.361L23.0164 96.5699L1.91104 84.3355C0.0786592 83.2676 -0.540923 80.9209 0.513685 79.1016C0.869615 78.4951 1.35737 78.0205 1.9374 77.6909L23.0164 65.4433ZM58.8862 53.3539C63.6188 53.3539 67.4285 54.6986 70.3155 57.4012C73.1893 60.1039 74.6262 63.6898 74.6262 68.1591C74.6262 72.6416 73.1893 76.2275 70.3155 78.9302C67.4285 81.6328 63.6188 82.9775 58.8862 82.9775C54.1536 82.9775 50.3571 81.6196 47.4701 78.9302C44.5963 76.2275 43.1462 72.6416 43.1462 68.1591C43.1462 63.6898 44.5963 60.0907 47.4701 57.4012C50.3571 54.6986 54.1536 53.3539 58.8862 53.3539ZM93.4246 55.4632H106.238L68.7204 106.497H55.9069L93.4246 55.4632ZM58.8862 64.7841C57.858 64.7841 57.0802 65.0873 56.5397 65.6674C55.9992 66.2607 55.7224 67.0912 55.7224 68.1723C55.7224 69.2534 55.9992 70.0971 56.5397 70.6904C57.0802 71.2705 57.858 71.5737 58.8862 71.5737C59.9144 71.5737 60.7054 71.2705 61.2459 70.6904C61.7864 70.0839 62.05 69.2534 62.05 68.1723C62.05 67.0912 61.7864 66.2607 61.2459 65.6674C60.7186 65.0873 59.9276 64.7841 58.8862 64.7841ZM103.087 79.0224C107.82 79.0224 111.617 80.3804 114.504 83.0698C117.377 85.7725 118.827 89.3584 118.827 93.8409C118.827 98.3101 117.377 101.909 114.504 104.599C111.617 107.301 107.82 108.646 103.087 108.646C98.3549 108.646 94.5451 107.301 91.6581 104.599C88.7843 101.896 87.3474 98.3101 87.3474 93.8409C87.3474 89.3584 88.7843 85.7725 91.6581 83.0698C94.5451 80.3804 98.3549 79.0224 103.087 79.0224ZM103.087 90.4527C102.059 90.4527 101.268 90.7559 100.728 91.336C100.187 91.9424 99.9104 92.7598 99.9104 93.8541C99.9104 94.9351 100.187 95.7657 100.728 96.359C101.268 96.9522 102.059 97.2423 103.087 97.2423C104.102 97.2423 104.893 96.939 105.434 96.359C105.974 95.7657 106.251 94.9351 106.251 93.8541C106.251 92.7598 105.974 91.9292 105.434 91.336C104.907 90.7427 104.116 90.4527 103.087 90.4527Z" fill="#FF6147"/>
</svg>
