<svg width="244" height="139" viewBox="0 0 244 139" fill="none" xmlns="http://www.w3.org/2000/svg">
<path fill-rule="evenodd" clip-rule="evenodd" d="M4.54726 129.046H27.1247C25.4567 128.588 24.2057 126.885 24.2057 124.899V4.27825C24.2256 1.94267 25.973 0 28.1175 0H191.302C193.427 0 195.194 1.94267 195.194 4.27825V40.6433L189.078 42.6952V22.0024H30.8777V123.676H189.078V97.4393L191.104 97.0682C192.474 96.8063 193.765 96.326 194.936 95.6494L195.214 95.5839V124.855C195.214 126.841 193.963 128.522 192.295 129.002H215.905C218.407 129.002 220.453 131.251 220.453 134.001C220.453 136.773 218.407 138.999 215.905 138.999H4.54726C2.04527 139.043 0 136.795 0 134.023C0 131.294 2.04527 129.046 4.54726 129.046ZM156.851 76.6155C158.936 79.0821 161.259 84.1243 160.802 88.4899L188.999 83.2294C187.947 74.4546 185.603 66.4001 181.076 59.568C171.942 66.3783 166.7 70.6129 156.851 76.6155ZM111.239 101.892C124.424 97.5921 138.523 112.981 149.742 101.041C152.72 97.8758 154.746 92.7681 154.488 87.9878C154.368 86.067 153.912 84.2116 152.978 82.5745C152.561 81.8542 152.065 81.1776 151.489 80.5009C144.301 72.4464 133.161 75.6333 125.834 81.8106C119.102 87.5076 114.277 95.9768 111.239 101.892ZM184.829 58.7822C189.078 66.1819 191.759 73.8652 192.732 81.876L238.542 54.5695C242.335 52.6923 244.758 50.7714 243.785 45.3145C243.03 43.5246 241.997 42.3241 240.687 41.7129C239.396 41.1017 237.847 41.1017 236.02 41.7129L184.829 58.7822ZM44.44 45.1399H175.993C176.767 45.1399 177.462 45.4455 177.998 45.9693C176.43 46.4059 174.92 47.148 173.53 48.2831L173.252 48.5232C166.958 53.2162 171.306 49.942 169.658 51.1862L168.665 51.9501H47.5377V87.1584H104.507C103.058 89.5376 101.787 91.8513 100.695 93.925H44.44C42.7323 93.925 41.3622 92.397 41.3622 90.5417V48.5232C41.3622 46.6678 42.7323 45.1399 44.44 45.1399ZM158.816 37.26C157.109 37.26 155.739 35.7539 155.739 33.8767C155.739 31.9995 157.129 30.4934 158.816 30.4934H171.227C172.935 30.4934 174.305 31.9995 174.305 33.8767C174.305 35.7539 172.935 37.26 171.227 37.26H158.816ZM128.157 37.26C126.449 37.26 125.079 35.7539 125.079 33.8767C125.079 31.9995 126.469 30.4934 128.157 30.4934H140.568C142.275 30.4934 143.646 31.9995 143.646 33.8767C143.646 35.7539 142.256 37.26 140.568 37.26H128.157ZM97.4781 37.26C95.7704 37.26 94.4002 35.7539 94.4002 33.8767C94.4002 31.9995 95.7704 30.4934 97.4781 30.4934H109.889C111.596 30.4934 112.967 31.9995 112.967 33.8767C112.967 35.7539 111.596 37.26 109.889 37.26H97.4781ZM49.8411 10.2809C51.5488 10.2809 52.9388 11.8088 52.9388 13.686C52.9388 15.5632 51.5488 17.0912 49.8411 17.0912C48.1334 17.0912 46.7434 15.5632 46.7434 13.686C46.7434 11.8088 48.1533 10.2809 49.8411 10.2809ZM60.3256 10.2809C62.0333 10.2809 63.4034 11.8088 63.4034 13.686C63.4034 15.5632 62.0134 17.0912 60.3256 17.0912C58.6378 17.0912 57.2279 15.5632 57.2279 13.686C57.2279 11.8088 58.6179 10.2809 60.3256 10.2809ZM39.3765 10.2809C41.0842 10.2809 42.4741 11.8088 42.4741 13.686C42.4741 15.5632 41.0842 17.0912 39.3765 17.0912C37.6687 17.0912 36.2788 15.5632 36.2788 13.686C36.2788 11.8088 37.6687 10.2809 39.3765 10.2809ZM103.812 130.923H116.62C117.832 130.923 118.804 132.014 118.804 133.324C118.804 134.656 117.812 135.725 116.62 135.725H103.812C102.601 135.725 101.628 134.634 101.628 133.324C101.628 131.971 102.601 130.923 103.812 130.923Z" fill="#FF6147"/>
</svg>
