<svg width="133" height="151" viewBox="0 0 133 151" fill="none" xmlns="http://www.w3.org/2000/svg">
<path d="M128.536 60.3064C127.545 26.8842 100.099 0 66.5 0C32.9009 0 5.45477 26.8842 4.46378 60.3064L0 64.7781V95.1042L4.43333 99.5454V120.208C4.43333 132.289 14.2446 142.118 26.3044 142.118H31.7959C33.6259 147.287 38.5537 151 44.3333 151H53.2C58.9834 151 63.9139 147.282 65.741 142.107C65.9943 142.111 66.2482 142.118 66.5 142.118C87.9095 142.118 105.823 126.835 109.942 106.588H121.536L133 95.1042V64.7781L128.536 60.3064ZM66.5 8.88235C92.8136 8.88235 114.723 28.1212 118.957 53.2941H109.942C105.823 33.0471 87.9095 17.7647 66.5 17.7647C45.0905 17.7647 27.1769 33.0471 23.0581 53.2941H14.043C18.2769 28.1212 40.1864 8.88235 66.5 8.88235V8.88235ZM100.844 53.2941C86.5133 53.2512 76.3905 54.1255 68.0446 41.904L63.9919 35.9697L60.5091 42.2566C55.4344 51.417 48.6003 53.2941 39.9 53.2941H32.1556C36.1027 37.9875 50.0042 26.6471 66.5 26.6471C82.9958 26.6471 96.8973 37.9875 100.844 53.2941V53.2941ZM22.1667 97.7059H15.1363L8.86667 91.4252V68.4572L15.1363 62.1765H22.1667V97.7059ZM13.3 120.208V106.588H23.0495C24.7185 114.871 28.7117 122.474 34.6276 128.581C33.3874 129.908 32.4148 131.488 31.7959 133.235H26.3044C19.1337 133.235 13.3 127.391 13.3 120.208V120.208ZM53.2 142.118H44.3333C41.8885 142.118 39.9 140.126 39.9 137.676C39.9 135.228 41.8885 133.235 44.3333 133.235H53.2C55.6445 133.235 57.6333 135.228 57.6333 137.676C57.6333 140.126 55.6445 142.118 53.2 142.118ZM101.967 97.7059C101.967 117.297 86.0563 133.235 66.5 133.235C66.2458 133.235 65.9896 133.23 65.7336 133.224C63.9006 128.061 58.9755 124.353 53.2 124.353C44.0969 124.373 44.242 124.307 43.1074 124.412C35.4105 117.654 31.0333 108.027 31.0333 97.7059V62.1765H39.9C47.7461 62.1765 57.3014 60.8805 64.698 51.8626C74.4572 62.1078 86.3835 62.1765 97.0894 62.1765H101.967V97.7059ZM124.133 91.4252L117.864 97.7059H110.833V62.1765H117.864L124.133 68.4572V91.4252Z" fill="#FF6147"/>
</svg>
