<svg width="201" height="140" viewBox="0 0 201 140" fill="none" xmlns="http://www.w3.org/2000/svg">
<path fill-rule="evenodd" clip-rule="evenodd" d="M88.208 119.169H129.701C129.805 126.249 132.759 132.577 140.782 137.576H77.1401C83.544 132.991 88.2374 127.419 88.208 119.169ZM67.1717 49.0422V134.611C67.1717 136.241 65.8174 137.576 64.1658 137.576H3.00752C1.35428 137.576 0 136.241 0 134.611V49.0422C0 47.414 1.35428 46.0788 3.00752 46.0788H64.1576C65.8174 46.0788 67.1717 47.4124 67.1717 49.0422ZM33.5826 127.72C35.4841 127.72 37.0295 129.242 37.0295 131.116C37.0295 132.991 35.4841 134.515 33.5826 134.515C31.681 134.515 30.1356 132.991 30.1356 131.116C30.1438 129.242 31.681 127.72 33.5826 127.72ZM63.0942 51.3678V124.706H4.50066V51.3678H63.0942ZM167.513 71.2095H193.556C195.538 71.2095 197.346 72.0067 198.635 73.2871C199.942 74.5771 200.739 76.3503 200.739 78.2942V132.526C200.739 134.481 199.932 136.264 198.635 137.533C197.325 138.824 195.528 139.609 193.556 139.609H167.513C165.529 139.609 163.721 138.813 162.434 137.533C161.125 136.244 160.328 134.471 160.328 132.526V78.2846C160.328 76.3294 161.135 74.5465 162.434 73.2758C163.741 71.9874 165.529 71.2095 167.513 71.2095ZM162.803 129.77H198.254V78.9352H162.803V129.77ZM180.525 131.986C182.15 131.986 183.478 133.276 183.478 134.898C183.478 136.502 182.17 137.811 180.525 137.811C178.899 137.811 177.569 136.521 177.569 134.898C177.569 133.297 178.878 131.986 180.525 131.986ZM28.5886 0H187.722C190.241 0 192.297 2.02443 192.297 4.50948V55.6116H185.801V10.0948C185.801 7.90609 183.988 6.10229 181.751 6.10229H34.5432C32.3231 6.10229 30.4934 7.88998 30.4934 10.0948V36.1499H24.0144V4.50948C24.0144 2.02443 26.0695 0 28.5886 0ZM76.8297 97.3033H151.124V112.946H76.8297V97.3033Z" fill="#FF6147"/>
</svg>
