<svg width="123" height="151" viewBox="0 0 123 151" fill="none" xmlns="http://www.w3.org/2000/svg">
<g clip-path="url(#clip0_276_1561)">
<path fill-rule="evenodd" clip-rule="evenodd" d="M27.3007 11.6272H40.8425C41.638 5.06993 46.9015 0 53.2863 0C59.633 0 64.8671 5.00205 65.7155 11.4914L79.4421 11.6272C80.2083 11.6272 80.8219 12.2469 80.8219 13.0171V28.3184C80.8219 29.0857 80.2083 29.7054 79.4421 29.7054H27.3154C26.5639 29.7054 25.9327 29.0857 25.9327 28.3184V13.0171C25.9302 12.8351 25.9637 12.6544 26.0313 12.4856C26.099 12.3168 26.1994 12.1632 26.3268 12.0338C26.4541 11.9044 26.6058 11.8018 26.7731 11.732C26.9403 11.6622 27.1197 11.6265 27.3007 11.6272ZM92.4643 89.6031C109.335 89.6031 123 103.349 123 120.3C123 137.26 109.326 151 92.4643 151C75.5936 151 61.9286 137.254 61.9286 120.3C61.9286 103.34 75.6024 89.6031 92.4643 89.6031ZM91.1433 130.809L80.3463 133.704L81.9022 122.053L91.1433 130.809ZM84.2829 119.406L94.8861 107.248C95.0652 107.038 95.3265 106.914 95.5995 106.905C95.7697 106.905 95.9371 106.938 96.0897 107.02L104.315 114.537C104.48 114.69 104.576 114.903 104.582 115.13C104.588 115.381 104.482 115.632 104.292 115.797L93.4947 128.162L84.2682 119.406H84.2829ZM38.905 79.2597C36.8119 79.2597 35.1122 77.551 35.1122 75.4439C35.1122 73.3398 36.8119 71.6312 38.905 71.6312H80.8307C82.9267 71.6312 84.6264 73.3398 84.6264 75.4439C84.6264 77.551 82.9267 79.2597 80.8307 79.2597H38.905ZM26.2733 71.1855C28.6158 71.1855 30.5122 73.0919 30.5122 75.4469C30.5122 77.8018 28.6158 79.7082 26.2733 79.7082C23.9336 79.7082 22.0343 77.8018 22.0343 75.4469C22.0343 73.0919 23.9336 71.1855 26.2733 71.1855ZM26.2733 94.3868C28.6158 94.3868 30.5122 96.2961 30.5122 98.6481C30.5122 101 28.6158 102.909 26.2733 102.909C23.9336 102.909 22.0343 101 22.0343 98.6481C22.0343 96.2961 23.9336 94.3868 26.2733 94.3868ZM38.9079 102.461C36.8149 102.461 35.1122 100.752 35.1122 98.6452C35.1122 96.5411 36.8149 94.8324 38.9079 94.8324H62.6742C60.6958 97.1684 58.9954 99.7286 57.6074 102.461H38.9079ZM26.2733 47.9872C28.6158 47.9872 30.5122 49.8936 30.5122 52.2486C30.5122 54.6035 28.6158 56.5099 26.2733 56.5099C23.9336 56.5099 22.0343 54.6035 22.0343 52.2486C22.0343 49.8936 23.9336 47.9872 26.2733 47.9872ZM38.905 56.0613C36.8119 56.0613 35.1122 54.3497 35.1122 52.2456C35.1122 50.1415 36.8119 48.4299 38.905 48.4299H80.8307C82.9267 48.4299 84.6264 50.1415 84.6264 52.2456C84.6264 54.3497 82.9267 56.0613 80.8307 56.0613H38.905ZM12.2501 17.4939H19.2749V24.6886H12.2501C10.8498 24.6886 9.57286 25.267 8.65403 26.1907C7.73227 27.1173 7.1569 28.3981 7.1569 29.8028V122.918C7.1569 124.328 7.72933 125.612 8.64816 126.539C9.57286 127.462 10.8498 128.041 12.2501 128.041H54.1171C54.6102 130.531 55.3412 132.939 56.2776 135.235H12.2501C8.90062 135.235 5.83296 133.845 3.61368 131.614C1.38265 129.369 0 126.294 0 122.918V29.8028C0 26.415 1.37971 23.337 3.59606 21.109C5.81241 18.8809 8.87714 17.4939 12.2501 17.4939ZM99.5977 81.6382V29.8028C99.5977 28.3981 99.0223 27.1144 98.1035 26.1848C97.1469 25.2269 95.8518 24.6889 94.5016 24.6886H87.4827V17.4939H94.5016C97.8599 17.4939 100.919 18.8839 103.138 21.109C105.372 23.3547 106.755 26.4356 106.755 29.8028V83.6922C104.468 82.7891 102.072 82.0956 99.5977 81.6382ZM53.1425 5.94934C56.7532 5.94934 59.677 8.89155 59.677 12.5214C59.677 16.1482 56.7532 19.0904 53.1425 19.0904C49.5347 19.0904 46.6079 16.1482 46.6079 12.5214C46.6079 8.89155 49.5347 5.94934 53.1425 5.94934Z" fill="#FF6147"/>
</g>
<defs>
<clipPath id="clip0_276_1561">
<rect width="123" height="151" fill="white"/>
</clipPath>
</defs>
</svg>
