<svg width="159" height="139" viewBox="0 0 159 139" fill="none" xmlns="http://www.w3.org/2000/svg">
<path fill-rule="evenodd" clip-rule="evenodd" d="M25.0896 84.6189V136.612C25.0828 137.242 24.8308 137.844 24.3878 138.288C23.9448 138.733 23.3464 138.984 22.7217 138.987H2.36792C1.74214 138.987 1.14181 138.737 0.698106 138.292C0.254405 137.847 0.00341954 137.243 0 136.612L0 84.6189H25.0896ZM0 67.6403L53.8152 20.1498C65.7324 31.8952 77.2873 46.1593 89.0752 57.9047L132.073 14.3555L118.228 0.365412L159 0V41.4742L145.711 28.0714C136.175 37.8201 113.621 59.2881 104.085 68.9193C92.0125 81.0822 86.2544 81.3041 74.1948 69.1411L53.8152 46.2768L29.929 67.6403H0ZM147.989 50.4921V136.625C147.982 137.253 147.732 137.853 147.291 138.297C146.851 138.741 146.256 138.993 145.634 139H125.267C124.644 138.99 124.051 138.734 123.613 138.288C123.175 137.841 122.928 137.24 122.925 136.612V74.7658C126.807 70.9682 131.335 66.5571 135.955 62.0678L145.595 52.7106C146.362 51.929 147.17 51.1885 148.014 50.4921H147.989ZM107.022 89.1866V136.612C107.015 137.242 106.763 137.844 106.32 138.288C105.877 138.733 105.279 138.984 104.654 138.987H84.3005C83.6758 138.984 83.0774 138.733 82.6344 138.288C82.1915 137.844 81.9394 137.242 81.9326 136.612V94.2501C84.3588 94.844 86.8507 95.1203 89.3469 95.0723C95.6968 94.9793 101.866 92.9251 107.022 89.1866ZM66.0559 85.2714V136.547C66.0491 137.177 65.7971 137.779 65.3541 138.223C64.9111 138.667 64.3127 138.918 63.688 138.922H43.3213C42.6978 138.918 42.1007 138.667 41.6598 138.222C41.2189 137.778 40.9697 137.175 40.9663 136.547V80.9126C41.3804 80.5994 41.7815 80.2731 42.1697 79.9338L52.3401 70.7985L60.5437 79.9338L61.1777 80.5994C62.834 82.2785 64.46 83.8098 66.0559 85.1931V85.2714Z" fill="#FF6147"/>
</svg>
