<svg width="70" height="70" viewBox="0 0 70 70" fill="none" xmlns="http://www.w3.org/2000/svg">
<rect x="-8" y="34.8887" width="60.6536" height="60.6536" rx="20" transform="rotate(-45 -8 34.8887)" fill="#575757"/>
<g clip-path="url(#clip0_279_1591)">
<g clip-path="url(#clip1_279_1591)">
<path d="M26.7629 32.2069L31.0759 32.1492L31.3972 32.2329C32.9103 33.1055 34.2645 34.1947 35.4373 35.4893C36.9849 32.9994 38.633 30.7134 40.3747 28.6109C42.2823 26.3066 44.3066 24.2168 46.4328 22.3091L46.854 22.1474H51.56L50.6115 23.2015C47.6949 26.4423 45.0491 29.7915 42.6584 33.2455C40.2664 36.7029 38.1282 40.2715 36.227 43.9449L35.6356 45.0868L35.0914 43.9238C33.1065 39.6633 30.308 36.0349 26.4113 33.3594L26.7629 32.2069V32.2069ZM34.9986 17.1113C37.7021 17.1113 40.355 17.7132 42.792 18.8833C42.9488 18.9585 43.0163 19.1491 42.9411 19.3066C42.9193 19.3516 42.8884 19.3896 42.8511 19.4191L40.2116 21.5792C40.1667 21.6168 40.1123 21.6414 40.0544 21.6504C39.9966 21.6593 39.9373 21.6522 39.8832 21.6299C38.318 21.0631 36.6664 20.7783 35.0021 20.7783C31.1862 20.7783 27.5645 22.2754 24.8673 24.9755C22.168 27.6764 20.6696 31.2921 20.6696 35.111C20.6696 38.9278 22.1666 42.547 24.8666 45.2457C27.568 47.9459 31.1827 49.4443 35.0021 49.4443C38.8145 49.4443 42.4405 47.9459 45.1355 45.2464C47.8362 42.547 49.3332 38.9292 49.3332 35.111C49.3332 34.1828 49.2481 33.2694 49.0695 32.3574C49.0505 32.2582 49.0801 32.1591 49.142 32.0881L51.47 29.1376C51.5797 29.0012 51.7808 28.9808 51.9172 29.0905C51.9685 29.132 52.003 29.1861 52.0212 29.2452C52.6716 31.1318 53 33.1161 53 35.111C53 39.8946 51.1107 44.4554 47.728 47.8383C44.3459 51.2198 39.7841 53.1113 35.0021 53.1113C30.2188 53.1113 25.6583 51.2205 22.2755 47.8383L22.2629 47.8242C18.8851 44.4413 17 39.8918 17 35.111C17 30.328 18.8893 25.7673 22.272 22.3844L22.2861 22.3717C25.6688 18.9965 30.2202 17.1113 34.9986 17.1113Z" fill="white"/>
</g>
</g>
<defs>
<clipPath id="clip0_279_1591">
<rect width="36" height="36" fill="white" transform="translate(17 16.8887)"/>
</clipPath>
<clipPath id="clip1_279_1591">
<rect width="36" height="36" fill="white" transform="matrix(-1 0 0 1 53 17)"/>
</clipPath>
</defs>
</svg>
