<svg width="39" height="50" viewBox="0 0 39 50" fill="none" xmlns="http://www.w3.org/2000/svg">
<path d="M19.5 24.0703C20.6781 24.0703 21.6836 23.6539 22.5164 22.8211C23.3492 21.9883 23.7656 20.9828 23.7656 19.8047C23.7656 18.6266 23.3492 17.6211 22.5164 16.7883C21.6836 15.9555 20.6781 15.5391 19.5 15.5391C18.3219 15.5391 17.3164 15.9555 16.4836 16.7883C15.6508 17.6211 15.2344 18.6266 15.2344 19.8047C15.2344 20.9828 15.6508 21.9883 16.4836 22.8211C17.3164 23.6539 18.3219 24.0703 19.5 24.0703ZM19.5 49.0547C12.9594 43.4891 8.07422 38.3195 4.84453 33.5461C1.61484 28.7727 0 24.3547 0 20.2922C0 14.1984 1.96016 9.34375 5.88047 5.72812C9.80078 2.1125 14.3406 0.304688 19.5 0.304688C24.6594 0.304688 29.1992 2.1125 33.1195 5.72812C37.0398 9.34375 39 14.1984 39 20.2922C39 24.3547 37.3852 28.7727 34.1555 33.5461C30.9258 38.3195 26.0406 43.4891 19.5 49.0547Z" fill="#222222"/>
</svg>
