<svg width="178" height="102" viewBox="0 0 178 102" fill="none" xmlns="http://www.w3.org/2000/svg">
<g clip-path="url(#clip0_2470_133)">
<path fill-rule="evenodd" clip-rule="evenodd" d="M23.6111 0H153.548C154.369 0.00381103 155.155 0.331747 155.735 0.912475C156.316 1.4932 156.644 2.27974 156.648 3.10101V57.2672L151.78 53.9778V12.9112H25.7549V88.9004H151.78V80.8146L156.648 83.0027V90.5234C156.642 91.1608 156.446 91.7818 156.083 92.3057H173.118C174.357 92.3735 175.523 92.9138 176.377 93.8154C177.23 94.7169 177.705 95.9113 177.705 97.1529C177.705 98.3944 177.23 99.5888 176.377 100.49C175.523 101.392 174.357 101.932 173.118 102H4.85211C4.19351 102.036 3.53448 101.937 2.91527 101.71C2.29606 101.483 1.72968 101.132 1.25072 100.678C0.771753 100.224 0.390264 99.6777 0.129551 99.0716C-0.131162 98.4656 -0.265625 97.8127 -0.265625 97.1529C-0.265625 96.493 -0.131162 95.8402 0.129551 95.2341C0.390264 94.628 0.771753 94.0814 1.25072 93.6278C1.72968 93.1742 2.29606 92.823 2.91527 92.5957C3.53448 92.3683 4.19351 92.2697 4.85211 92.3057H21.0761C20.7072 91.7848 20.5097 91.1618 20.5111 90.5234V3.10101C20.5111 2.69378 20.5913 2.29054 20.7471 1.9143C20.9029 1.53807 21.1312 1.19622 21.4191 0.908264C21.7069 0.620309 22.0487 0.39189 22.4248 0.23605C22.8009 0.0802099 23.204 0 23.6111 0V0ZM41.6312 4.99929C42.0008 4.99929 42.3621 5.10892 42.6694 5.31432C42.9767 5.51972 43.2162 5.81167 43.3577 6.15324C43.4991 6.49481 43.5361 6.87066 43.464 7.23327C43.3919 7.59588 43.2139 7.92896 42.9526 8.19038C42.6912 8.45181 42.3583 8.62984 41.9958 8.70197C41.6333 8.7741 41.2576 8.73708 40.9161 8.5956C40.5747 8.45411 40.2828 8.21452 40.0775 7.90712C39.8722 7.59971 39.7626 7.2383 39.7626 6.86859C39.7626 6.37282 39.9595 5.89736 40.3099 5.54679C40.6604 5.19623 41.1356 4.99929 41.6312 4.99929ZM35.0982 4.99929C35.4678 4.99929 35.8291 5.10892 36.1364 5.31432C36.4437 5.51972 36.6832 5.81167 36.8246 6.15324C36.966 6.49481 37.0031 6.87066 36.931 7.23327C36.8588 7.59588 36.6809 7.92896 36.4195 8.19038C36.1582 8.45181 35.8252 8.62984 35.4628 8.70197C35.1003 8.7741 34.7246 8.73708 34.3831 8.5956C34.0416 8.45411 33.7498 8.21452 33.5445 7.90712C33.3391 7.59971 33.2296 7.2383 33.2296 6.86859C33.2296 6.37282 33.4264 5.89736 33.7769 5.54679C34.1273 5.19623 34.6026 4.99929 35.0982 4.99929ZM28.5652 4.99929C28.9347 4.99929 29.296 5.10892 29.6033 5.31432C29.9106 5.51972 30.1501 5.81167 30.2916 6.15324C30.433 6.49481 30.47 6.87066 30.3979 7.23327C30.3258 7.59588 30.1478 7.92896 29.8865 8.19038C29.6252 8.45181 29.2922 8.62984 28.9297 8.70197C28.5672 8.7741 28.1915 8.73708 27.8501 8.5956C27.5086 8.45411 27.2168 8.21452 27.0114 7.90712C26.8061 7.59971 26.6965 7.2383 26.6965 6.86859C26.6965 6.37282 26.8934 5.89736 27.2438 5.54679C27.5943 5.19623 28.0696 4.99929 28.5652 4.99929ZM83.9004 94.8416H94.0404C94.2687 94.8416 94.4947 94.8866 94.7056 94.974C94.9165 95.0613 95.1082 95.1894 95.2696 95.3509C95.431 95.5124 95.559 95.7041 95.6464 95.915C95.7337 96.126 95.7787 96.3521 95.7787 96.5805C95.7787 96.8088 95.7337 97.035 95.6464 97.2459C95.559 97.4569 95.431 97.6486 95.2696 97.8101C95.1082 97.9715 94.9165 98.0996 94.7056 98.187C94.4947 98.2744 94.2687 98.3194 94.0404 98.3194H83.9004C83.6722 98.3194 83.4461 98.2744 83.2352 98.187C83.0243 98.0996 82.8327 97.9715 82.6713 97.8101C82.5099 97.6486 82.3818 97.4569 82.2945 97.2459C82.2071 97.035 82.1622 96.8088 82.1622 96.5805C82.1622 96.3521 82.2071 96.126 82.2945 95.915C82.3818 95.7041 82.5099 95.5124 82.6713 95.3509C82.8327 95.1894 83.0243 95.0613 83.2352 94.974C83.4461 94.8866 83.6722 94.8416 83.9004 94.8416Z" fill="#0E274E"/>
<path fill-rule="evenodd" clip-rule="evenodd" d="M53.9595 65.2805C52.6268 65.2805 52.6268 60.3247 53.9595 60.3247H107.441C109.661 61.8485 112.245 62.7583 114.93 62.962C116.945 63.1662 118.98 62.9842 120.927 62.4259L123.665 65.324L53.9595 65.2805ZM36.736 65.2805C35.4178 65.2805 35.4178 60.3247 36.736 60.3247H49.2516C50.5698 60.3247 50.5698 65.2805 49.2516 65.2805H36.736ZM36.3159 54.9197C34.9832 54.9197 34.9832 49.9639 36.3159 49.9639H48.8171C50.1353 49.9639 50.1353 54.9197 48.8171 54.9197H36.3159ZM53.9595 54.9197C52.6268 54.9197 52.6268 49.9639 53.9595 49.9639H100.386L100.531 50.2827C101.27 51.8766 101.979 53.4416 102.834 54.9197H53.9595Z" fill="#0E274E"/>
<path fill-rule="evenodd" clip-rule="evenodd" d="M113.218 18.8377H137.844C138.375 18.8242 138.903 18.9162 139.397 19.1083C139.892 19.3003 140.344 19.5887 140.727 19.9566C141.109 20.3245 141.415 20.7647 141.626 21.2517C141.838 21.7387 141.951 22.2628 141.958 22.7937V38.5161C141.954 39.5756 141.532 40.5907 140.783 41.3399C140.034 42.0891 139.019 42.5117 137.96 42.5155H129.66C128.985 41.2018 128.132 39.9876 127.125 38.9073C124.08 35.759 120.166 33.5897 115.884 32.6763C113.685 32.1959 111.442 31.953 109.191 31.9518V22.7937C109.207 21.7367 109.638 20.7284 110.392 19.9877C111.146 19.247 112.162 18.8338 113.218 18.8377Z" fill="#0E274E"/>
<path fill-rule="evenodd" clip-rule="evenodd" d="M76.3117 18.8379H100.937C101.994 18.8455 103.005 19.2698 103.751 20.0186C104.497 20.7674 104.917 21.7803 104.921 22.8373V32.1838C102.907 32.3867 101.053 32.6765 99.5033 32.9663C97.8112 33.2968 96.3172 34.2801 95.3441 35.7037C94.3709 37.1273 93.9969 38.8767 94.3029 40.5739C94.4247 41.2646 94.6597 41.9305 94.9982 42.5447H76.3117C75.2539 42.5408 74.2407 42.1178 73.494 41.3682C72.7474 40.6185 72.3281 39.6034 72.3281 38.5452V22.7938C72.3395 21.7432 72.7638 20.7392 73.5092 19.999C74.2546 19.2587 75.2613 18.8416 76.3117 18.8379Z" fill="#0E274E"/>
<path fill-rule="evenodd" clip-rule="evenodd" d="M39.4022 18.8381H64.0278C65.0896 18.8265 66.1126 19.2363 66.8729 19.9778C67.6331 20.7193 68.0686 21.732 68.0838 22.7941V38.5165C68.0762 39.5749 67.6526 40.5877 66.9044 41.3361C66.1563 42.0845 65.1438 42.5083 64.0858 42.5159H39.4601C38.4023 42.5121 37.3891 42.089 36.6424 41.3394C35.8958 40.5898 35.4766 39.5747 35.4766 38.5165V22.7941C35.4877 21.7534 35.904 20.758 36.637 20.0193C37.3699 19.2806 38.3619 18.8569 39.4022 18.8381Z" fill="#0E274E"/>
<path fill-rule="evenodd" clip-rule="evenodd" d="M100.746 39.3714C107.467 43.849 106.54 55.4851 115.608 56.4414C116.895 56.5646 118.193 56.421 119.422 56.0196C120.651 55.6181 121.784 54.9676 122.75 54.1084C123.864 53.0937 124.557 51.6974 124.691 50.196C125.27 44.1823 119.766 40.2553 114.551 39.0671C109.997 38.2722 105.332 38.3756 100.819 39.3714H100.746ZM128.269 51.2683C127.927 53.5613 126.719 55.6358 124.894 57.0645L131.818 64.3099C135.008 61.0414 137.321 57.0186 138.539 52.6159C135.075 52.547 131.629 52.0852 128.269 51.2393V51.2683ZM140.277 54.065C138.981 58.3241 136.765 62.2468 133.788 65.5561L165.903 79.9743C166.572 80.3222 167.283 80.585 168.018 80.7568C168.587 80.8697 169.175 80.8358 169.728 80.6583C170.28 80.4808 170.778 80.1656 171.175 79.7424C171.572 79.3191 171.855 78.8018 171.997 78.239C172.139 77.6762 172.135 77.0866 171.987 76.5256C171.666 75.6414 171.046 74.8978 170.234 74.4244L140.277 54.1374V54.065Z" fill="#0E274E"/>
</g>
<defs>
<clipPath id="clip0_2470_133">
<rect width="178" height="102" fill="white"/>
</clipPath>
</defs>
</svg>
