<svg width="112" height="112" viewBox="0 0 112 112" fill="none" xmlns="http://www.w3.org/2000/svg">
<path fill-rule="evenodd" clip-rule="evenodd" d="M74.5432 8.72202L48.954 23.8138L78.9789 27.8417L103.668 12.6405L74.5432 8.72202ZM80.4692 53.5047C96.8345 53.5047 110.099 66.6 110.099 82.7534C110.099 98.9047 96.8345 112 80.4692 112C64.1039 112 50.8391 98.9047 50.8391 82.7534C50.8391 66.6 64.1039 53.5047 80.4692 53.5047ZM72.8399 78.627L77.2556 82.7119L87.3977 72.5412C88.3869 71.5496 89.0123 70.7505 90.2343 71.9918L94.1998 76.0044C95.5038 77.2763 95.4373 78.0228 94.2086 79.2049L79.52 93.4363C76.934 95.9451 77.382 96.0961 74.7561 93.5261L66.1621 85.0936C65.6143 84.5069 65.6764 83.9181 66.2752 83.3292L70.8771 78.6182C71.5758 77.8958 72.128 77.9571 72.8399 78.627ZM45.4276 27.6119L45.4077 58.6338L33.997 50.9632L22.5841 57.3269L23.937 24.7288L4.30036 22.0953V90.6102L43.9883 95.6758C44.5472 97.2279 45.2014 98.7362 45.951 100.19L2.06257 94.5878C0.91596 94.5418 0 93.6071 0 92.4666V19.672C0.0598812 18.7854 0.419168 18.1637 1.26859 17.7434L40.4708 0.186668C40.8212 0.0290515 41.2515 -0.0344328 41.6352 0.0181059L109.984 9.22114C111.113 9.3503 111.887 10.2653 111.887 11.4081V11.4124L112 61.4928C110.731 59.6408 108.547 57.0511 107.58 55.4136V15.2281L81.8953 31.6311V44.7242C80.4615 44.6719 79.0258 44.6982 77.5949 44.803V31.9266L45.4276 27.6119ZM27.348 20.9176L52.2253 5.71637L41.6729 4.29563L9.81164 18.5643L27.348 20.9176Z" fill="#0E274E"/>
</svg>
