<svg width="127" height="130" viewBox="0 0 127 130" fill="none" xmlns="http://www.w3.org/2000/svg">
<path d="M116.934 31.8837C116.224 30.8674 115.149 30.1658 113.935 29.9262C112.72 29.6867 111.46 29.9277 110.419 30.5988C109.378 31.2699 108.636 32.3188 108.351 33.5255C108.065 34.7321 108.257 36.0027 108.887 37.0705C110.477 39.536 111.86 42.1295 113.021 44.8243C113.526 45.9898 114.472 46.9067 115.652 47.3732C116.832 47.8398 118.148 47.8178 119.312 47.3121C120.475 46.8064 121.391 45.8584 121.857 44.6767C122.322 43.4949 122.3 42.1763 121.795 41.0108C120.429 37.8391 118.803 34.7863 116.934 31.8837ZM32.8275 86.4455V78.1741L45.1982 65.4976C45.9075 64.8105 46.5699 64.0764 47.1809 63.3003C47.6768 62.6887 48.1014 62.0224 48.4465 61.3143C48.7424 60.7016 48.8973 60.0301 48.8999 59.3495C48.9235 58.7056 48.7741 58.0672 48.4675 57.5008C48.1748 57.0007 47.7098 56.625 47.1598 56.4444C46.4243 56.2075 45.6542 56.0968 44.8818 56.117H33.4708V47.8561C35.2215 47.4688 37.1761 47.1166 39.3345 46.7997C41.8279 46.4385 44.3453 46.269 46.8645 46.2927C49.3894 46.1828 51.908 46.6225 54.2469 47.5814C55.9479 48.3396 57.3159 49.6912 58.0963 51.3844C58.9171 53.338 59.3091 55.4456 59.2458 57.5642C59.2653 59.1825 59.0304 60.7939 58.5497 62.339C58.0839 63.7724 57.4086 65.1287 56.546 66.3638C55.6002 67.7021 54.5417 68.9567 53.3821 70.114L46.527 77.1494H60.3426V86.4878L32.8275 86.4455ZM82.0362 86.4455V79.0509H65.447L63.6541 74.424L75.1811 46.5673H85.7274L75.9932 70.2935H81.994V64.3884L83.9767 59.2333H92.4137V70.2935H95.5775V77.4769L92.4137 79.0932V86.4878L82.0362 86.4455ZM108.613 17.5275C108.809 18.0604 108.926 18.6191 108.961 19.186C109.161 20.4577 108.896 21.7592 108.214 22.8503C107.531 23.9414 106.478 24.7486 105.248 25.1229L91.0427 29.4751C89.6931 29.8842 88.2366 29.7395 86.9935 29.0728C85.7505 28.4062 84.8227 27.2722 84.4144 25.9204C84.006 24.5686 84.1505 23.1097 84.816 21.8646C85.4815 20.6194 86.6136 19.6901 87.9632 19.2811L89.3131 18.8691C85.9026 17.0059 82.299 15.5217 78.5665 14.4429C71.1434 12.2894 63.3452 11.758 55.6994 12.8846C48.0536 14.0112 40.7386 16.7696 34.2492 20.9731C27.7597 25.1766 22.2474 30.7273 18.0849 37.2494C13.9225 43.7716 11.2072 51.1132 10.1226 58.7776C9.03799 66.4419 9.60947 74.2502 11.7984 81.6742C13.9872 89.0981 17.7425 95.9646 22.81 101.809C27.8775 107.653 34.1391 112.339 41.1711 115.55C48.2032 118.761 55.8416 120.421 63.5697 120.419C64.9774 120.452 66.3858 120.406 67.7882 120.281C69.8166 120.139 71.8346 119.874 73.8312 119.489C74.4606 119.339 75.1138 119.318 75.7515 119.428C76.3891 119.538 76.9979 119.776 77.5411 120.128C78.0843 120.48 78.5506 120.939 78.9119 121.476C79.2732 122.014 79.522 122.619 79.6433 123.256C79.7645 123.892 79.7557 124.547 79.6174 125.18C79.4791 125.813 79.2141 126.411 78.8385 126.939C78.4628 127.467 77.9843 127.913 77.4319 128.25C76.8794 128.587 76.2644 128.809 75.6241 128.901C73.2605 129.349 70.873 129.659 68.4737 129.831C67.746 129.831 64.3502 130 63.5908 130C53.8743 130.011 44.2848 127.789 35.5601 123.505C26.8355 119.221 19.2084 112.989 13.2656 105.289C7.32286 97.5884 3.2229 88.6253 1.2812 79.0889C-0.660488 69.5525 -0.392145 59.697 2.06558 50.2808C4.52331 40.8646 9.10491 32.1386 15.4578 24.7744C21.8108 17.4102 29.7657 11.604 38.7104 7.80263C47.6552 4.00125 57.3514 2.306 67.0529 2.84734C76.7544 3.38867 86.2026 6.15216 94.6706 10.9252L93.3417 7.43912C93.0604 6.77732 92.9154 6.06546 92.9153 5.34618C92.9151 4.6269 93.06 3.915 93.341 3.2531C93.6221 2.59121 94.0336 1.99294 94.551 1.49413C95.0683 0.995326 95.6809 0.606241 96.3519 0.350181C97.023 0.0941204 97.7387 -0.0236475 98.4563 0.00393055C99.1738 0.0315086 99.8784 0.203865 100.528 0.510677C101.177 0.81749 101.758 1.25245 102.236 1.7895C102.714 2.32654 103.078 2.95464 103.308 3.63616L108.581 17.5275H108.613ZM90.2622 113.499C89.1574 114.123 88.3451 115.16 88.0039 116.384C87.6627 117.607 87.8207 118.916 88.443 120.022C89.0654 121.129 90.1011 121.943 91.3224 122.285C92.5437 122.626 93.8505 122.468 94.9553 121.845C97.9748 120.164 100.84 118.22 103.519 116.035C104.034 115.648 104.467 115.162 104.79 114.605C105.114 114.047 105.322 113.43 105.402 112.791C105.482 112.151 105.432 111.502 105.256 110.881C105.08 110.261 104.781 109.683 104.376 109.181C103.972 108.68 103.471 108.265 102.903 107.962C102.335 107.659 101.711 107.473 101.07 107.417C100.429 107.36 99.7831 107.434 99.1709 107.633C98.5588 107.832 97.993 108.153 97.5075 108.577C95.2425 110.429 92.8179 112.076 90.2622 113.499ZM109.108 95.5409C108.437 96.6182 108.22 97.9184 108.506 99.1556C108.792 100.393 109.557 101.466 110.632 102.138C111.708 102.81 113.006 103.027 114.241 102.741C115.476 102.455 116.547 101.689 117.218 100.612C119.046 97.6839 120.637 94.6141 121.975 91.4316C122.248 90.846 122.4 90.2111 122.422 89.5651C122.444 88.919 122.336 88.2752 122.103 87.6722C121.871 87.0693 121.519 86.5196 121.069 86.0563C120.619 85.593 120.08 85.2257 119.484 84.9763C118.889 84.7269 118.249 84.6007 117.604 84.6051C116.959 84.6096 116.321 84.7447 115.729 85.0023C115.137 85.2599 114.603 85.6348 114.16 86.1042C113.716 86.5737 113.372 87.1282 113.148 87.7343C112.013 90.441 110.662 93.0516 109.108 95.5409ZM117.303 70.6738C117.312 71.8725 117.77 73.0242 118.586 73.901C119.402 74.7778 120.516 75.3159 121.71 75.4088C122.903 75.5018 124.087 75.1428 125.029 74.4029C125.97 73.6631 126.6 72.5962 126.794 71.4133C127.069 67.9715 127.069 64.5132 126.794 61.0714C126.807 60.4001 126.678 59.7338 126.418 59.1154C126.157 58.497 125.769 57.9404 125.28 57.4815C124.791 57.0226 124.211 56.6717 123.578 56.4516C122.944 56.2314 122.272 56.1468 121.604 56.2033C120.936 56.2598 120.288 56.4561 119.701 56.7795C119.113 57.1029 118.6 57.5462 118.195 58.0808C117.789 58.6153 117.5 59.2292 117.347 59.8826C117.193 60.5361 117.178 61.2146 117.303 61.8742C117.535 64.8028 117.535 67.7452 117.303 70.6738Z" fill="#0E274E"/>
</svg>
