<svg width="114" height="114" viewBox="0 0 114 114" fill="none" xmlns="http://www.w3.org/2000/svg">
<path d="M5.37529 58.3601C7.9312 60.6386 10.4853 62.7928 13.0439 64.8208C16.4209 59.6923 20.1003 54.9896 24.0998 50.7397C23.3446 49.3174 22.9178 47.693 22.9178 45.972C22.9178 45.1222 23.0208 44.2975 23.2184 43.5061C19.0399 40.799 14.7398 37.7801 10.2626 34.4162C6.95151 41.2443 5.0979 48.9046 5.0979 56.9981H5.10903V57.0009H5.09697C5.09697 57.5501 5.10811 58.0975 5.1248 58.6421L5.37529 58.3601ZM12.7341 29.9018C17.216 33.2825 21.5049 36.3125 25.6648 39.0224C27.5203 37.0426 30.1606 35.8059 33.0858 35.8059C35.4061 35.8059 37.5436 36.5843 39.2552 37.8933C40.4798 37.0815 41.7295 36.2985 43.0005 35.5517C48.296 32.4382 53.9784 29.899 60.0801 27.9656C60.0355 27.5611 60.0151 27.1511 60.0151 26.7392C60.0151 25.1861 60.3259 23.7055 60.8918 22.3593C54.6937 17.1074 47.3534 12.4567 38.9045 8.34775C31.8547 10.9732 25.5303 15.0868 20.309 20.3081C17.4256 23.1887 14.8799 26.4098 12.7341 29.9018ZM46.0193 6.26499C52.7009 9.86089 58.6616 13.826 63.8792 18.2021C65.6233 16.6732 67.8406 15.6676 70.2805 15.4356C70.8279 12.7554 71.3446 10.0307 71.8354 7.25395C67.1336 5.85215 62.1554 5.09512 57.0019 5.09512V5.10625H56.9972V5.09512C53.2306 5.09512 49.5596 5.50146 46.0193 6.26499ZM76.7051 8.97954C76.2737 11.3907 75.8219 13.7657 75.3487 16.1027C78.7507 17.3792 81.3781 20.2404 82.3309 23.788C86.9361 23.4494 91.726 23.3835 96.7145 23.6025C95.7533 22.4623 94.7477 21.3602 93.6937 20.3053C88.8714 15.4857 83.1092 11.6115 76.7051 8.97954ZM100.664 28.949C94.2894 28.4712 88.2442 28.4592 82.5155 28.8906C82.046 31.3417 80.7862 33.5126 79.0151 35.1287C80.5218 37.4508 81.8874 39.8573 83.1074 42.3511C84.8849 45.9887 86.3489 49.8091 87.5039 53.8123C87.8555 53.7761 88.2127 53.7557 88.5764 53.7557C93.1399 53.7557 97.0021 56.7616 98.2879 60.9067C101.652 61.0245 105.13 61.0867 108.741 61.1089C108.847 59.7517 108.905 58.3833 108.905 57.0019H108.894V56.9991V56.9972H108.905C108.902 46.6669 105.877 37.0398 100.664 28.949ZM108.088 66.1892C104.8 66.166 101.618 66.1085 98.53 66.0064C97.7053 69.9679 94.5723 73.086 90.6007 73.8894C90.7751 78.6366 90.6118 83.6 90.0978 88.7823C93.01 88.4752 95.963 88.0522 98.9679 87.5206C103.498 81.3066 106.68 74.0545 108.088 66.1892ZM101.899 92.1092L101.91 92.1621L101.849 92.1732C100.437 93.9739 98.9206 95.6865 97.3026 97.3045C86.9964 107.611 72.7464 113.987 57.0037 113.989V114H57.0019H56.9991V113.989C41.2563 113.989 27.0073 107.611 16.6964 97.3017C6.38931 86.9937 0.0120605 72.7437 0.0102051 57.0009H0V56.9981H0.0102051C0.0102051 41.2536 6.38931 27.0045 16.6983 16.6955C27.0073 6.38652 41.2536 0.0102051 56.9972 0.0102051V0H57.0019V0.0102051C72.7464 0.0102051 86.9955 6.38745 97.3036 16.6983C107.613 27.0045 113.989 41.2536 113.989 56.9972H114V56.9991V57.0019H113.989C113.989 70.249 109.473 82.4357 101.899 92.1092ZM93.9229 93.4553C92.4311 93.6539 90.9523 93.8255 89.4837 93.9674C89.3009 95.2802 89.095 96.6059 88.8714 97.9474C90.5654 96.6282 92.1769 95.2087 93.6937 93.6919L93.9229 93.4553ZM82.958 101.941C83.4775 99.3576 83.9191 96.8286 84.2837 94.3524C74.9869 94.8358 66.102 94.165 57.5038 92.3495C55.8227 94.3432 53.3095 95.6151 50.4984 95.6151C50.2897 95.6151 50.0837 95.6067 49.8815 95.5947C48.2589 99.7333 46.6882 103.76 45.2484 107.562C49.0243 108.437 52.9597 108.903 56.9981 108.903V108.892H57.0009H57.0028V108.903C66.4555 108.903 75.3209 106.368 82.958 101.941ZM40.3407 106.166C41.9169 101.977 43.4903 97.9316 45.0888 93.8477C43.0756 92.3736 41.6868 90.0951 41.3946 87.4844C32.172 83.8301 23.2305 78.76 14.3901 72.2659C12.9725 74.6539 11.6152 77.1291 10.3146 79.6924C12.8556 84.9053 16.2493 89.6349 20.3081 93.6937C25.8829 99.2666 32.7147 103.58 40.3407 106.166ZM7.79854 73.5582C8.6168 72.0646 9.4564 70.6006 10.3164 69.1654C8.8042 67.9751 7.29292 66.7421 5.78442 65.4693C6.2418 68.2441 6.91904 70.9503 7.79854 73.5582ZM42.4067 41.9085C42.9513 43.1536 43.2547 44.5275 43.2547 45.9729C43.2547 46.9452 43.1165 47.8869 42.8613 48.7775C48.4472 51.4494 53.9375 53.5702 59.5021 55.2447C61.5246 49.1894 63.4682 42.9012 65.2782 36.3227C63.856 35.4172 62.6499 34.2056 61.7519 32.7796C55.9582 34.6017 50.5764 36.998 45.5731 39.939C44.5025 40.568 43.4439 41.2267 42.4067 41.9085ZM40.2544 53.1824C38.4166 55.0128 35.8829 56.1428 33.0849 56.1428C31.042 56.1428 29.1383 55.5388 27.5426 54.5035C23.7667 58.5475 20.2914 63.0303 17.0907 67.9213C25.38 74.048 33.7296 78.8593 42.2982 82.3615C43.803 79.3593 46.91 77.297 50.4966 77.297C50.8417 77.297 51.1803 77.3165 51.5171 77.3545C53.6481 71.7862 55.7837 66.0454 57.8563 60.0717C51.9624 58.2905 46.1557 56.0314 40.2544 53.1824ZM74.5592 37.64C73.5471 37.9341 72.4765 38.0918 71.3678 38.0918C70.9392 38.0918 70.5143 38.0705 70.0978 38.0223C68.3137 44.4812 66.4072 50.658 64.4237 56.6048C69.2943 57.8359 74.2633 58.7571 79.4484 59.4353C80.2026 57.9055 81.3289 56.5946 82.7122 55.6186C81.6221 51.7518 80.223 48.0761 78.5188 44.5878C77.3443 42.1859 76.0232 39.8731 74.5592 37.64ZM85.487 73.6129C81.5377 72.3559 78.6348 68.7516 78.4205 64.4386C73.0322 63.7214 67.8573 62.7492 62.7789 61.4485C60.6367 67.6291 58.4296 73.5647 56.2272 79.3139C58.3165 80.9931 59.6543 83.5703 59.6543 86.4565C59.6543 86.8369 59.6292 87.2107 59.5847 87.58C67.7079 89.1952 76.1178 89.7407 84.9332 89.21C85.5139 83.7484 85.6948 78.5522 85.487 73.6129Z" fill="#0E274E"/>
</svg>
