<svg width="131" height="125" viewBox="0 0 131 125" fill="none" xmlns="http://www.w3.org/2000/svg">
<path d="M27.4328 78.2676L21.3996 92.0513C21.2588 92.3753 21.0254 92.6528 20.7273 92.8507C20.4292 93.0486 20.079 93.1586 19.7186 93.1675L4.54082 94.4984L16.1109 104.357C16.6482 104.816 16.8529 105.51 16.7045 106.147L13.2862 120.76L26.4657 113.069C27.0797 112.709 27.8217 112.734 28.3949 113.069L41.5794 120.76L40.0775 114.353C41.3261 114.49 42.6131 114.4 43.8643 114.065L45.5734 121.384C45.6221 121.701 45.6221 122.028 45.5683 122.356C45.5028 122.75 45.3622 123.128 45.1538 123.472C44.7165 124.185 44.007 124.7 43.1811 124.903C42.3905 125.097 41.518 124.995 40.753 124.55L27.4303 116.777L14.2226 124.488C13.9361 124.67 13.6137 124.81 13.2683 124.895L13.0278 124.952C12.6593 125.017 12.2627 125.017 11.8636 124.942L11.7357 124.92C10.8811 124.725 10.1826 124.211 9.74506 123.532C9.30267 122.845 9.14955 122.018 9.31777 121.224L12.7898 106.394L1.10203 96.4337C0.794999 96.1715 0.53402 95.8468 0.349799 95.4898C0.177691 95.1617 0.0659725 94.8068 0.0197366 94.441L0.00694344 94.2787C-0.0493462 93.4522 0.239778 92.6681 0.759178 92.0638C1.27346 91.4645 2.0129 91.0525 2.85725 90.9601L18.3804 89.6092L24.4648 75.6981C24.6264 75.3231 24.861 74.9821 25.1556 74.6943C25.3962 74.4546 25.6827 74.2523 26.0025 74.095C26.1177 74.0351 26.2354 73.9852 26.3608 73.9477C27.1181 73.683 27.9266 73.7205 28.6277 73.9951C29.3313 74.2723 29.9377 74.7917 30.301 75.4959L35.1164 86.4854L33.7168 92.4608C33.6144 92.336 33.5326 92.1987 33.4686 92.0513L27.4328 78.2676ZM10.4743 37.9003C9.01585 37.301 8.33014 35.6629 8.94421 34.2396C9.55828 32.8163 11.2393 32.147 12.6977 32.7463L24.6542 37.6905C26.1126 38.2898 26.7983 39.9304 26.1842 41.3512C25.5701 42.7745 23.8891 43.4437 22.4307 42.8444L10.4743 37.9003ZM22.6328 19.7117C21.5173 18.6155 21.5224 16.8426 22.6456 15.7539C23.7689 14.6652 25.5855 14.6702 26.7011 15.7664L35.8353 24.7758C36.9509 25.872 36.9458 27.6449 35.8225 28.7336C34.6993 29.8223 32.8827 29.8173 31.7671 28.7211L22.6328 19.7117ZM40.9654 7.39127C40.3641 5.96296 41.0626 4.32739 42.5261 3.74058C43.9922 3.15378 45.6656 3.83547 46.2694 5.26379L51.2075 16.9874C51.8088 18.4158 51.1077 20.0513 49.6442 20.6381C48.1807 21.2249 46.5048 20.5432 45.9035 19.1149L40.9654 7.39127ZM118.302 32.7463C119.761 32.147 121.442 32.8163 122.056 34.2396C122.67 35.6629 121.984 37.301 120.526 37.9003L108.569 42.8444C107.111 43.4437 105.43 42.7745 104.816 41.3512C104.202 39.9304 104.887 38.2898 106.346 37.6905L118.302 32.7463ZM104.299 15.7664C105.415 14.6702 107.231 14.6652 108.354 15.7539C109.478 16.8426 109.483 18.6155 108.367 19.7117L99.2329 28.7211C98.1173 29.8173 96.3007 29.8223 95.1775 28.7336C94.0542 27.6449 94.0491 25.872 95.1647 24.7758L104.299 15.7664ZM84.7306 5.26379C85.3344 3.83547 87.0078 3.15378 88.4739 3.74058C89.9374 4.32739 90.6359 5.96296 90.0346 7.39127L85.0965 19.1149C84.4952 20.5432 82.8193 21.2249 81.3558 20.6381C79.8923 20.0513 79.1912 18.4158 79.7925 16.9874L84.7306 5.26379ZM62.5346 2.80669C62.5346 1.25851 63.8215 0 65.4104 0C66.9968 0 68.2863 1.25851 68.2863 2.80669V15.4817C68.2863 17.0299 66.9968 18.2884 65.4104 18.2884C63.8215 18.2884 62.5346 17.0299 62.5346 15.4817V2.80669ZM68.7469 33.8675L77.9477 54.8902L101.374 56.9378C102.319 57.0302 103.137 57.4821 103.705 58.1414L103.8 58.2637C104.304 58.9055 104.58 59.7195 104.516 60.576L104.506 60.7033C104.46 61.1278 104.332 61.5249 104.145 61.8844L104.092 61.9793C103.923 62.2765 103.708 62.5512 103.46 62.7859L85.6364 77.9829L90.8867 100.411C91.0734 101.303 90.8841 102.189 90.4184 102.911C89.3796 104.534 87.1613 104.991 85.5366 103.955L65.5 92.2611L45.2971 104.047C44.511 104.494 43.5772 104.623 42.695 104.407C40.8349 103.95 39.7168 102.132 40.1338 100.329L45.3636 77.9829L27.6733 62.9057C27.3267 62.61 27.0432 62.2505 26.8391 61.8477C26.6349 61.4449 26.5141 61.0069 26.4836 60.5585C26.4247 59.6945 26.7062 58.7981 27.3433 58.0889C27.6631 57.7343 28.0392 57.4572 28.4435 57.2649C28.8605 57.0651 29.3211 56.9503 29.7867 56.9253L53.0523 54.8902L62.2761 33.8101C62.6548 32.9436 63.3635 32.3019 64.1951 31.9772C65.9912 31.2706 67.9998 32.1246 68.7341 33.8351L68.7469 33.8675ZM106.551 75.7356L112.62 89.6092L128.143 90.9601C128.987 91.0525 129.727 91.467 130.241 92.0638C130.76 92.6681 131.049 93.4522 130.993 94.2787L130.98 94.441C130.934 94.8068 130.822 95.1617 130.65 95.4898C130.466 95.8468 130.208 96.169 129.898 96.4337L118.21 106.394L121.682 121.224C121.856 122.046 121.682 122.867 121.255 123.532C120.82 124.208 120.119 124.725 119.264 124.92L119.136 124.942C118.737 125.017 118.343 125.017 117.972 124.952L117.732 124.895C117.386 124.81 117.064 124.673 116.777 124.488L103.567 116.777L90.247 124.55C89.8859 124.762 89.4855 124.902 89.0689 124.963C88.6522 125.023 88.2274 125.003 87.8189 124.903C87.0257 124.708 86.3016 124.213 85.8462 123.472C85.6312 123.12 85.4931 122.74 85.4291 122.361L85.4266 122.341C85.3728 122.028 85.3754 121.706 85.4266 121.389L87.1383 114.058C87.4172 114.133 87.7037 114.195 87.9903 114.245C88.9498 114.415 89.94 114.455 90.9225 114.348L89.4206 120.76L102.603 113.069C103.178 112.734 103.918 112.709 104.532 113.069L117.714 120.76L114.293 106.147C114.147 105.51 114.352 104.816 114.889 104.357L126.459 94.4984L111.281 93.1675C110.921 93.1586 110.571 93.0486 110.273 92.8507C109.975 92.6528 109.741 92.3753 109.6 92.0513L103.567 78.2676L97.5365 92.0513C97.47 92.2037 97.3804 92.346 97.2755 92.4733L95.8785 86.5029L100.699 75.4959C101.062 74.7917 101.669 74.2723 102.372 73.9951C103.076 73.7205 103.884 73.683 104.642 73.9477C104.767 73.9877 104.887 74.0376 105 74.0975C105.322 74.2548 105.604 74.4571 105.844 74.6943C106.141 74.9865 106.377 75.3311 106.535 75.6981L106.551 75.7356Z" fill="#0E274E"/>
</svg>
