<svg width="116" height="78" viewBox="0 0 116 78" fill="none" xmlns="http://www.w3.org/2000/svg">
<path d="M0.277869 61V0.785283H27.8046C33.3099 0.785283 38.0411 1.67417 41.9981 3.45194C46.0124 5.2297 49.1091 7.81033 51.2883 11.1938C53.4675 14.52 54.5571 18.4769 54.5571 23.0647C54.5571 27.5952 53.4675 31.5235 51.2883 34.8496C49.1091 38.1184 46.0124 40.6417 41.9981 42.4195C38.0411 44.1399 33.3099 45.0001 27.8046 45.0001H9.74018L17.31 37.8603V61H0.277869ZM37.525 61L22.5573 39.0646H40.7077L55.7614 61H37.525ZM17.31 39.6668L9.74018 31.8389H26.7723C30.3279 31.8389 32.9659 31.0647 34.6863 29.5163C36.464 27.9679 37.3529 25.8174 37.3529 23.0647C37.3529 20.2547 36.464 18.0755 34.6863 16.5271C32.9659 14.9788 30.3279 14.2046 26.7723 14.2046H9.74018L17.31 6.37665V39.6668ZM92.5126 61.7742C88.5556 61.7742 85.1721 60.914 82.3621 59.1936C79.5521 57.4158 77.4015 54.7778 75.9105 51.2796C74.4768 47.7241 73.76 43.1936 73.76 37.6883C73.76 32.1256 74.4482 27.5952 75.8245 24.097C77.2008 20.5414 79.2653 17.9035 82.018 16.183C84.828 14.4626 88.3262 13.6024 92.5126 13.6024C96.7563 13.6024 100.599 14.606 104.039 16.6132C107.538 18.563 110.29 21.3443 112.297 24.9572C114.362 28.5127 115.394 32.7564 115.394 37.6883C115.394 42.6202 114.362 46.8926 112.297 50.5054C110.29 54.1183 107.538 56.8997 104.039 58.8495C100.599 60.7993 96.7563 61.7742 92.5126 61.7742ZM63.1794 77.6881V14.3766H78.7492V22.2905L78.6632 37.6883L79.5234 53.1721V77.6881H63.1794ZM89.0717 48.785C90.9068 48.785 92.5412 48.3549 93.9749 47.4947C95.466 46.6345 96.6416 45.3728 97.5018 43.7098C98.4193 42.0467 98.8781 40.0395 98.8781 37.6883C98.8781 35.3371 98.4193 33.3299 97.5018 31.6668C96.6416 30.0038 95.466 28.7421 93.9749 27.8819C92.5412 27.0217 90.9068 26.5916 89.0717 26.5916C87.2366 26.5916 85.5735 27.0217 84.0825 27.8819C82.6488 28.7421 81.4732 30.0038 80.5556 31.6668C79.6954 33.3299 79.2653 35.3371 79.2653 37.6883C79.2653 40.0395 79.6954 42.0467 80.5556 43.7098C81.4732 45.3728 82.6488 46.6345 84.0825 47.4947C85.5735 48.3549 87.2366 48.785 89.0717 48.785Z" fill="#0E274E"/>
</svg>
