<svg width="52" height="49" viewBox="0 0 52 49" fill="none" xmlns="http://www.w3.org/2000/svg">
<path fill-rule="evenodd" clip-rule="evenodd" d="M25.848 3.56333L33.746 0.148438L38.0761 7.51698L46.4755 9.39849L45.6467 17.9067L51.3361 24.3635L45.6674 30.7623L46.4962 39.3327L38.1259 41.1769L33.746 48.5827L25.906 45.1637L18.0081 48.5827L13.6779 41.21L5.27856 39.3327L6.1073 30.8203L0.417969 24.3635L6.08659 17.9689L5.27856 9.39849L13.6282 7.55428L18.0081 0.148438L25.848 3.56333ZM15.9321 26.8998C13.4168 24.1936 17.2788 20.1612 20.0758 22.7141C21.062 23.6134 22.4957 24.9271 23.4902 25.8182L31.1561 16.3858C33.8247 13.6298 38.0389 17.6788 35.4034 20.4554L25.7776 31.9434C25.2507 32.501 24.5276 32.8318 23.7613 32.8659C22.9949 32.8999 22.2454 32.6345 21.6711 32.1258C20.0385 30.5717 17.6434 28.3296 15.9321 26.8998Z" fill="white"/>
</svg>
