<svg width="39" height="33" viewBox="0 0 39 33" fill="none" xmlns="http://www.w3.org/2000/svg">
<path fill-rule="evenodd" clip-rule="evenodd" d="M34.5891 32.3047H4.34744V27.7743C4.5061 22.4995 9.07567 18.4869 11.8365 13.9241V9.91141H16.4378V12.7915H22.6257V9.91141H27.227V13.9241C30.2099 18.8105 34.5891 21.9818 34.5891 27.7095V32.3047ZM38.8731 13.9241C38.8731 13.2121 39 12.5002 38.9048 11.7236C35.5094 12.8562 32.2091 12.5326 28.9723 10.7204C28.8454 11.9501 29.0358 13.0503 29.4801 14.0859C30.6225 16.6747 38.7779 17.5484 38.8731 13.9241ZM0.0951994 13.9241C0.0951994 13.2121 -0.0317331 12.5002 0.0634662 11.7236C3.45891 12.8562 6.75915 12.5326 9.99593 10.7204C10.1229 11.9501 9.93247 13.0503 9.4882 14.0859C8.34581 16.6747 0.158666 17.5484 0.0951994 13.9241ZM0 10.6233C2.72905 -2.35312 36.62 -3.90642 39 10.6557C35.6998 11.5941 32.336 11.044 28.9723 9.49072C29.0675 8.81116 28.9089 8.26103 28.5598 7.80799C26.5606 5.25153 12.249 5.15445 10.4085 7.90507C10.1229 8.32575 9.99593 8.84352 10.0277 9.426C6.69569 11.4971 3.33198 11.9825 0 10.6233ZM14.978 15.7362C15.7396 15.7362 16.3426 16.3511 16.3426 17.1277C16.3426 17.9044 15.7396 18.5192 14.978 18.5192C14.2164 18.5192 13.6135 17.9044 13.6135 17.1277C13.6452 16.3835 14.2482 15.7362 14.978 15.7362ZM23.7364 23.5027C24.498 23.5027 25.1009 24.1175 25.1009 24.8942C25.1009 25.6708 24.498 26.2857 23.7364 26.2857C22.9748 26.2857 22.3718 25.6708 22.3718 24.8942C22.3718 24.1499 22.9748 23.5027 23.7364 23.5027ZM19.3572 23.5027C20.1188 23.5027 20.7217 24.1175 20.7217 24.8942C20.7217 25.6708 20.1188 26.2857 19.3572 26.2857C18.5956 26.2857 17.9927 25.6708 17.9927 24.8942C17.9927 24.1499 18.5956 23.5027 19.3572 23.5027ZM14.978 23.5027C15.7396 23.5027 16.3426 24.1175 16.3426 24.8942C16.3426 25.6708 15.7396 26.2857 14.978 26.2857C14.2164 26.2857 13.6135 25.6708 13.6135 24.8942C13.6452 24.1499 14.2482 23.5027 14.978 23.5027ZM23.7364 19.6195C24.498 19.6195 25.1009 20.2343 25.1009 21.011C25.1009 21.7876 24.498 22.4025 23.7364 22.4025C22.9748 22.4025 22.3718 21.7876 22.3718 21.011C22.3718 20.2667 22.9748 19.6195 23.7364 19.6195ZM19.3572 19.6195C20.1188 19.6195 20.7217 20.2343 20.7217 21.011C20.7217 21.7876 20.1188 22.4025 19.3572 22.4025C18.5956 22.4025 17.9927 21.7876 17.9927 21.011C17.9927 20.2667 18.5956 19.6195 19.3572 19.6195ZM14.978 19.6195C15.7396 19.6195 16.3426 20.2343 16.3426 21.011C16.3426 21.7876 15.7396 22.4025 14.978 22.4025C14.2164 22.4025 13.6135 21.7876 13.6135 21.011C13.6452 20.2667 14.2482 19.6195 14.978 19.6195ZM23.7364 15.7362C24.498 15.7362 25.1009 16.3511 25.1009 17.1277C25.1009 17.9044 24.498 18.5192 23.7364 18.5192C22.9748 18.5192 22.3718 17.9044 22.3718 17.1277C22.3718 16.3835 22.9748 15.7362 23.7364 15.7362ZM19.3572 15.7362C20.1188 15.7362 20.7217 16.3511 20.7217 17.1277C20.7217 17.9044 20.1188 18.5192 19.3572 18.5192C18.5956 18.5192 17.9927 17.9044 17.9927 17.1277C17.9927 16.3835 18.5956 15.7362 19.3572 15.7362Z" fill="#222222"/>
</svg>
