<svg width="84" height="68" viewBox="0 0 84 68" fill="none" xmlns="http://www.w3.org/2000/svg">
<g clip-path="url(#clip0_278_660)">
<path fill-rule="evenodd" clip-rule="evenodd" d="M26.5234 30.8384C26.5556 30.4745 26.6577 30.1201 26.8242 29.7948C26.3397 29.4262 25.9397 28.9587 25.6509 28.4234C25.3621 27.8882 25.1911 27.2976 25.1494 26.6911H25.0537C24.8428 26.6933 24.6351 26.6392 24.4521 26.5343C24.1407 26.3464 23.9003 26.061 23.7686 25.7225C23.4609 25.0404 23.2148 23.1646 23.9941 22.6326L23.8574 22.5098V22.3051C23.8574 21.93 23.8232 21.473 23.8096 21.0023C23.8096 19.2561 23.748 18.0624 22.3398 17.6395L21.7383 17.4553L22.1348 16.9642C23.1767 15.6503 24.3595 14.4541 25.6621 13.3967C26.8362 12.3966 28.2488 11.7153 29.7637 11.4186C30.4669 11.3052 31.1864 11.346 31.8723 11.538C32.5581 11.73 33.1938 12.0686 33.7354 12.5304C34.1117 12.8657 34.453 13.2382 34.7539 13.6423C37.7959 13.9356 39.3887 16.2616 39.2451 19.0105C39.1977 20.4434 38.6092 21.8055 37.5977 22.8236C37.7761 22.8278 37.9514 22.8721 38.1104 22.9532C38.3569 23.1196 38.5371 23.3672 38.6196 23.6526C38.702 23.938 38.6815 24.2433 38.5615 24.5152C38.4111 24.9927 38.2129 25.5452 38.0352 26.009C37.8096 26.6366 37.4883 26.7525 36.8594 26.6911C36.8252 28.2464 36.1074 29.0035 35.1436 29.9175L35.3623 30.6952C34.7539 33.6419 28.2734 33.9693 26.5234 30.8589V30.8384ZM41.6172 61.3289C35.1777 61.3289 39.416 61.8337 40.291 54.8557C41.6104 44.4125 51.5498 44.4125 53.0195 54.8557C53.9629 61.5677 58.0029 61.3289 51.7002 61.3289H49.2188C49.2188 63.041 48.9453 62.8432 50.7158 63.805C51.625 64.2961 53.3135 64.6576 54.7559 65.2238C56.957 63.3548 60.8604 64.5894 61.2637 61.1311C61.3252 60.6059 60.0879 59.3167 59.8076 58.3617C59.4698 57.8421 59.2771 57.242 59.2494 56.6232C59.2218 56.0044 59.3602 55.3895 59.6504 54.842C59.8328 54.3568 59.8846 53.8323 59.8008 53.3209C59.8008 47.7617 69.5625 47.7548 69.5625 53.3209C69.5625 54.003 69.4053 54.3986 69.7813 54.9443C70.4238 55.872 70.0957 57.5159 69.5557 58.3549C69.207 59.3644 67.8945 60.5581 68.0039 61.1243C68.9063 65.7081 74.915 60.9333 75.4824 67.9454H8.55176C9.26953 59.7396 18.5459 64.8009 19.2227 59.0711C19.2979 58.4231 17.7598 56.6633 17.4043 55.4696C16.6523 54.269 16.3789 52.3591 17.2061 51.0904C17.5342 50.5856 17.3975 50.1013 17.3975 49.4124C17.3975 42.5026 29.5244 42.5026 29.5244 49.4124C29.5244 50.2855 29.3262 50.531 29.7979 51.22C30.5977 52.3728 30.1875 54.4055 29.5176 55.4696C29.0869 56.7178 27.4668 58.3617 27.5898 59.0711C28.6084 64.2279 35.4033 60.1761 37.249 65.8923C38.7324 64.9782 41.2412 64.644 42.8135 63.7027C44.3857 62.7614 44.1055 62.9046 44.0918 61.3494L41.6172 61.3289ZM15.5381 40.3948C16.1533 32.4755 17.6436 35.4427 24.4248 31.2136C26.291 36.0566 35.2666 36.3772 37.2354 31.2136C43.0664 34.9447 45.9854 32.1276 45.9512 40.3948H24.2334C23.9736 40.3948 23.7139 40.3948 23.4609 40.3948C23.208 40.3948 22.9551 40.3948 22.7021 40.3948H15.5381ZM2.00293 44.7467H6.83594C6.46786 44.6507 6.14179 44.4362 5.90822 44.1366C5.67465 43.8369 5.54661 43.4688 5.54395 43.0892V7.91935C5.54754 7.46701 5.72968 7.03431 6.05088 6.71509C6.37208 6.39586 6.80643 6.21584 7.25977 6.21406H39.7441V8.10352H7.67676V43.0346H16.2285C14.6121 44.508 13.6483 46.5616 13.5488 48.7439H2.00293C1.47227 48.7421 0.963867 48.531 0.588635 48.1565C0.213403 47.7821 0.0018019 47.2748 0 46.7453H0C0.0018019 46.2158 0.213403 45.7085 0.588635 45.3341C0.963867 44.9597 1.47227 44.7485 2.00293 44.7467V44.7467ZM30.7139 43.0346H76.1318V8.10352H74.2109V6.21406H76.3232C76.7759 6.21586 77.2096 6.3961 77.5297 6.71551C77.8498 7.03493 78.0304 7.46763 78.0322 7.91935V43.0824C78.0335 43.462 77.9077 43.8311 77.6749 44.1314C77.4421 44.4316 77.1156 44.6458 76.7471 44.7399H82.0312C82.5619 44.7417 83.0703 44.9528 83.4455 45.3273C83.8208 45.7017 84.0324 46.209 84.0342 46.7385C84.0342 47.2692 83.8234 47.7782 83.448 48.1541C83.0725 48.53 82.5631 48.7421 82.0312 48.7439H71.9756C70.9481 47.3934 69.5312 46.389 67.915 45.8654V45.8654C65.8109 45.1286 63.5182 45.1286 61.4141 45.8654C59.7967 46.3939 58.3783 47.4001 57.3467 48.7507H55.084C54.2312 47.1042 52.9786 45.6971 51.4404 44.658C49.9966 43.6926 48.2976 43.1774 46.5596 43.1778C44.8211 43.1933 43.1276 43.7305 41.6992 44.7194C40.2122 45.752 39.0031 47.1342 38.1787 48.7439H33.3936C33.2911 46.5623 32.3278 44.5098 30.7139 43.0346V43.0346ZM48.1729 0H65.7617C66.8774 0.00359708 67.9464 0.447443 68.7353 1.23466C69.5242 2.02188 69.9691 3.08854 69.9727 4.20183V15.2112C69.9691 16.3244 69.5242 17.3911 68.7353 18.1783C67.9464 18.9655 66.8774 19.4094 65.7617 19.413H55.4531L49.0615 24.8699C48.9926 24.9335 48.9112 24.9823 48.8225 25.0131C48.7339 25.044 48.6398 25.0562 48.5461 25.0492C48.4525 25.0422 48.3613 25.0159 48.2783 24.9722C48.1952 24.9284 48.1221 24.8681 48.0635 24.7949C48.0025 24.7265 47.956 24.6465 47.9266 24.5598C47.8972 24.4731 47.8857 24.3814 47.8926 24.2901L48.2344 19.3857H48.1729C47.0572 19.3821 45.9882 18.9383 45.1993 18.151C44.4103 17.3638 43.9655 16.2972 43.9619 15.1839V4.20183C43.9655 3.08854 44.4103 2.02188 45.1993 1.23466C45.9882 0.447443 47.0572 0.00359708 48.1729 0V0ZM55.2686 5.17043L60.7373 8.96981C60.8535 9.04215 60.9495 9.14261 61.0164 9.26185C61.0834 9.38109 61.119 9.51526 61.1201 9.65192C61.1221 9.78536 61.0914 9.91727 61.0307 10.0362C60.9699 10.1551 60.8809 10.2573 60.7715 10.334L55.3027 14.0788C55.1579 14.2022 54.9736 14.2699 54.7832 14.2698C54.571 14.261 54.3708 14.1697 54.2252 14.0155C54.0796 13.8612 54.0002 13.6563 54.0039 13.4445V5.83208C54.0039 5.6168 54.0896 5.41034 54.2422 5.25811C54.3947 5.10588 54.6016 5.02036 54.8174 5.02036C54.9897 5.01987 55.1575 5.07489 55.2959 5.17725L55.2686 5.17043ZM48.6309 30.5451C48.3654 30.5238 48.1178 30.4035 47.9372 30.2082C47.7566 30.0129 47.6563 29.7569 47.6563 29.4912C47.6563 29.2255 47.7566 28.9695 47.9372 28.7742C48.1178 28.579 48.3654 28.4587 48.6309 28.4374H70.7793C71.0447 28.4587 71.2924 28.579 71.473 28.7742C71.6536 28.9695 71.7538 29.2255 71.7538 29.4912C71.7538 29.7569 71.6536 30.0129 71.473 30.2082C71.2924 30.4035 71.0447 30.5238 70.7793 30.5451H48.6309ZM55.1113 37.2707C54.8459 37.2494 54.5982 37.1291 54.4176 36.9339C54.2371 36.7386 54.1368 36.4826 54.1368 36.2169C54.1368 35.9512 54.2371 35.6952 54.4176 35.4999C54.5982 35.3046 54.8459 35.1843 55.1113 35.163H70.834C70.9798 35.1513 71.1265 35.1698 71.2648 35.2175C71.4031 35.2651 71.53 35.3408 71.6376 35.4398C71.7451 35.5388 71.8309 35.659 71.8896 35.7927C71.9483 35.9265 71.9786 36.0709 71.9786 36.2169C71.9786 36.3629 71.9483 36.5073 71.8896 36.641C71.8309 36.7747 71.7451 36.8949 71.6376 36.9939C71.53 37.0929 71.4031 37.1686 71.2648 37.2163C71.1265 37.2639 70.9798 37.2825 70.834 37.2707H55.1113Z" fill="#FF6147"/>
</g>
<defs>
<clipPath id="clip0_278_660">
<rect width="84" height="68" fill="white"/>
</clipPath>
</defs>
</svg>
