<svg width="77" height="69" viewBox="0 0 77 69" fill="none" xmlns="http://www.w3.org/2000/svg">
<g clip-path="url(#clip0_278_655)">
<path fill-rule="evenodd" clip-rule="evenodd" d="M4.41772 0H67.6883C68.8914 0 69.9943 0.498285 70.7901 1.28931L70.7964 1.29554L70.8027 1.30177L70.8089 1.308C71.6047 2.10525 72.0998 3.19525 72.0998 4.39114V26.2036C71.7677 25.9046 71.3917 25.6368 70.9844 25.4063C70.0194 24.8644 69.0669 24.5592 68.1144 24.4596V15.7022C67.9766 15.7271 67.8324 15.7396 67.6946 15.7396H4.41772C4.2736 15.7396 4.12948 15.7271 3.99788 15.7022V64.6026C3.99788 64.721 4.04175 64.8269 4.11694 64.9016L4.12321 64.9078C4.19841 64.9826 4.29867 65.0262 4.42399 65.0262H37.2843C37.2781 66.7328 37.6102 68.0533 38.2744 69H4.42399C3.22087 69 2.118 68.5079 1.31592 67.7107L1.30965 67.7045L1.30339 67.6982L1.29712 67.692C0.495036 66.8947 0 65.8048 0 64.6089V4.37868C0.0125326 3.17034 0.507568 2.07411 1.30339 1.28308C1.35352 1.23326 1.39738 1.18966 1.44751 1.14606C2.23706 0.435999 3.27726 0 4.41772 0ZM34.5334 29.7601C33.606 29.7601 32.8541 28.9504 32.8541 27.9476C32.8541 26.9448 33.606 26.135 34.5334 26.135H59.6925C60.4758 26.135 61.1338 26.7143 61.3218 27.4991L59.1223 29.7663H34.5334V29.7601ZM34.5334 38.9285C33.606 38.9285 32.8541 38.1188 32.8541 37.116C32.8541 36.1132 33.606 35.3035 34.5334 35.3035H53.7396L50.2179 38.9285H34.5334V38.9285ZM55.9265 60.9776C54.6419 61.3825 53.3573 61.7811 52.0728 62.186C50.7882 62.5908 49.5036 63.058 48.219 63.4628C45.1736 64.4033 43.488 65.0075 43.1433 65.076C42.8049 65.1445 43.0117 63.7992 43.7511 60.8406L46.1825 51.6348L46.383 51.4355L55.9265 60.9776ZM49.9046 47.8665L66.9238 30.3456C67.3311 30.0092 67.7384 29.8784 68.2084 30.1462L76.7306 38.3493C77.0689 38.7541 77.1379 39.2213 76.6616 39.6946L59.4419 57.4149L49.9046 47.8665ZM72.0998 53.0424V64.6151C72.0998 65.8234 71.6047 66.9197 70.8027 67.7107C70.0068 68.5017 68.904 69 67.6883 69H49.9673L50.2869 68.9003L50.6002 68.8131C50.9448 68.7073 51.7657 68.427 52.5803 68.1467C53.0002 68.0034 53.42 67.8602 54.2973 67.5861L57.9944 66.4276L57.9881 66.4151C58.8591 66.1411 59.68 65.6802 60.3881 65.0262H67.6883C67.8011 65.0262 67.9076 64.9764 67.9891 64.8954C68.0643 64.8206 68.1207 64.7148 68.1207 64.5964V57.1408L72.0998 53.0424ZM12.2255 57.583C11.3106 57.583 10.5649 56.7733 10.5649 55.7705C10.5649 54.7677 11.3106 53.958 12.2255 53.958H39.559L38.6003 57.583H12.2255V57.583ZM11.5613 49.6603C10.6464 49.6603 9.90072 48.8506 9.90072 47.8478C9.90072 46.845 10.6464 46.0353 11.5613 46.0353H43.4692C43.1182 46.2658 42.7799 46.5398 42.4666 46.8512L42.4352 46.8824C41.6457 47.6173 41.0316 48.5641 40.6995 49.6603H11.5613ZM10.3331 21.5197H28.6619V39.9002H10.3331V21.5197ZM29.4139 5.65553C30.9993 5.65553 32.2776 6.93239 32.2776 8.50199C32.2776 10.0716 30.993 11.3484 29.4139 11.3484C27.8348 11.3484 26.5502 10.0716 26.5502 8.50199C26.5502 6.93239 27.8348 5.65553 29.4139 5.65553ZM19.4004 5.65553C20.9858 5.65553 22.2641 6.93239 22.2641 8.50199C22.2641 10.0716 20.9795 11.3484 19.4004 11.3484C17.815 11.3484 16.5367 10.0716 16.5367 8.50199C16.5367 6.93239 17.8213 5.65553 19.4004 5.65553ZM9.39315 5.65553C10.9785 5.65553 12.2568 6.93239 12.2568 8.50199C12.2568 10.0716 10.9722 11.3484 9.39315 11.3484C7.80778 11.3484 6.52946 10.0716 6.52946 8.50199C6.52946 6.93239 7.80778 5.65553 9.39315 5.65553Z" fill="#FF6147"/>
</g>
<defs>
<clipPath id="clip0_278_655">
<rect width="77" height="69" fill="white"/>
</clipPath>
</defs>
</svg>
