<svg width="78" height="64" viewBox="0 0 78 64" fill="none" xmlns="http://www.w3.org/2000/svg">
<g clip-path="url(#clip0_278_662)">
<path fill-rule="evenodd" clip-rule="evenodd" d="M70.6748 59.533C70.5852 60.74 70.0438 61.8687 69.1588 62.6933C68.2738 63.518 67.1105 63.9779 65.9014 63.9809H4.78613C3.52108 63.9776 2.30852 63.4744 1.41221 62.5807C0.515902 61.687 0.0083624 60.4752 0 59.2089L0 12.3971C0 10.0524 1.95508 8.09531 4.17676 7.68229V19.1771H3.04053V59.6728C3.03969 59.8474 3.07343 60.0205 3.1398 60.182C3.20617 60.3435 3.30386 60.4902 3.42722 60.6137C3.55058 60.7372 3.69717 60.835 3.8585 60.9014C4.01984 60.9679 4.19273 61.0016 4.36719 61.0008H66.5171C66.8689 61.0008 67.2064 60.8609 67.4552 60.6118C67.704 60.3628 67.8437 60.025 67.8437 59.6728V59.533H70.6748ZM14.5615 15.2121H70.2305V38.8308H14.5615V15.2121ZM12.0986 0H73.2139C74.4822 0.00335444 75.6976 0.509207 76.5945 1.40699C77.4913 2.30477 77.9966 3.52146 78 4.7911V51.6029C77.9966 52.8725 77.4913 54.0892 76.5945 54.987C75.6976 55.8848 74.4822 56.3906 73.2139 56.394H12.0986C10.8303 56.3906 9.61488 55.8848 8.71803 54.987C7.82118 54.0892 7.31585 52.8725 7.3125 51.6029V4.7911C7.31585 3.52146 7.82118 2.30477 8.71803 1.40699C9.61488 0.509207 10.8303 0.00335444 12.0986 0V0ZM75.1753 11.5774H10.353V52.1048C10.3646 52.4481 10.5099 52.7733 10.7578 53.0107C11.0057 53.2482 11.3366 53.3792 11.6797 53.3757H73.8296C74.1716 53.3775 74.5009 53.2458 74.7474 53.0085C74.994 52.7712 75.1383 52.447 75.1499 52.1048V11.5774H75.1753ZM68.6563 4.15568C69.1248 4.15442 69.5832 4.29236 69.9734 4.55203C70.3636 4.81169 70.668 5.18142 70.8482 5.61439C71.0284 6.04736 71.0762 6.52412 70.9856 6.9843C70.8949 7.44448 70.6699 7.86739 70.339 8.19949C70.0082 8.5316 69.5863 8.75796 69.1268 8.84993C68.6674 8.9419 68.191 8.89534 67.758 8.71613C67.325 8.53693 66.9548 8.23315 66.6944 7.84325C66.4339 7.45334 66.2949 6.99485 66.2949 6.52581C66.2949 5.89831 66.5435 5.29642 66.9862 4.85212C67.4288 4.40781 68.0294 4.15736 68.6563 4.15568V4.15568ZM52.6411 4.15568C53.1097 4.15442 53.5681 4.29236 53.9583 4.55203C54.3484 4.81169 54.6529 5.18142 54.8331 5.61439C55.0133 6.04736 55.0611 6.52412 54.9704 6.9843C54.8798 7.44448 54.6548 7.86739 54.3239 8.19949C53.993 8.5316 53.5712 8.75796 53.1117 8.84993C52.6523 8.9419 52.1759 8.89534 51.7429 8.71613C51.3099 8.53693 50.9397 8.23315 50.6793 7.84325C50.4188 7.45334 50.2798 6.99485 50.2798 6.52581C50.2798 5.89831 50.5284 5.29642 50.971 4.85212C51.4137 4.40781 52.0143 4.15736 52.6411 4.15568V4.15568ZM60.6519 4.15568C61.1201 4.15568 61.5779 4.29468 61.9673 4.55512C62.3566 4.81555 62.6601 5.18572 62.8393 5.6188C63.0185 6.05189 63.0654 6.52844 62.974 6.9882C62.8827 7.44797 62.6572 7.87028 62.3261 8.20175C61.9949 8.53322 61.5731 8.75896 61.1138 8.85041C60.6545 8.94186 60.1784 8.89492 59.7458 8.71553C59.3131 8.53614 58.9434 8.23236 58.6832 7.84259C58.423 7.45282 58.2842 6.99458 58.2842 6.52581C58.2842 6.21456 58.3454 5.90636 58.4644 5.6188C58.5834 5.33124 58.7578 5.06996 58.9777 4.84988C59.1975 4.62979 59.4585 4.45521 59.7458 4.33609C60.033 4.21698 60.3409 4.15568 60.6519 4.15568V4.15568ZM45.7793 47.2311C45.2732 47.1909 44.8009 46.9612 44.4564 46.5879C44.112 46.2146 43.9207 45.725 43.9207 45.2168C43.9207 44.7086 44.112 44.2191 44.4564 43.8458C44.8009 43.4725 45.2732 43.2428 45.7793 43.2025H68.5864C69.0925 43.2428 69.5648 43.4725 69.9093 43.8458C70.2537 44.2191 70.445 44.7086 70.445 45.2168C70.445 45.725 70.2537 46.2146 69.9093 46.5879C69.5648 46.9612 69.0925 47.1909 68.5864 47.2311H45.7793ZM15.9453 47.2311C15.4392 47.1909 14.9669 46.9612 14.6225 46.5879C14.278 46.2146 14.0867 45.725 14.0867 45.2168C14.0867 44.7086 14.278 44.2191 14.6225 43.8458C14.9669 43.4725 15.4392 43.2428 15.9453 43.2025H37.064C37.57 43.2428 38.0424 43.4725 38.3868 43.8458C38.7313 44.2191 38.9226 44.7086 38.9226 45.2168C38.9226 45.725 38.7313 46.2146 38.3868 46.5879C38.0424 46.9612 37.57 47.1909 37.064 47.2311H15.9453Z" fill="#FF6147"/>
</g>
<defs>
<clipPath id="clip0_278_662">
<rect width="78" height="64" fill="white"/>
</clipPath>
</defs>
</svg>
