<svg width="84" height="62" viewBox="0 0 84 62" fill="none" xmlns="http://www.w3.org/2000/svg">
<g clip-path="url(#clip0_278_658)">
<path fill-rule="evenodd" clip-rule="evenodd" d="M2.56946 55.3619H10.1984C10.1323 55.1425 10.0975 54.9096 10.0958 54.6743V1.87772C10.0976 1.38043 10.2516 0.904172 10.5243 0.552533C10.797 0.200893 11.1663 0.0023184 11.5519 0L72.4601 0C72.8451 0.00233089 73.2137 0.20119 73.4853 0.553078C73.7568 0.904967 73.9093 1.38124 73.9093 1.87772V54.6566C73.9111 54.8924 73.8763 55.1262 73.8068 55.3442H81.4425C82.1252 55.3469 82.7792 55.6989 83.2609 56.3228C83.4996 56.6299 83.689 56.9947 83.8182 57.3963C83.9475 57.7979 84.014 58.2285 84.014 58.6633C84.014 59.0981 83.9475 59.5287 83.8182 59.9303C83.689 60.332 83.4996 60.6968 83.2609 61.0038C82.7792 61.6277 82.1252 61.9797 81.4425 61.9824H2.56946C1.90981 61.9385 1.28839 61.5697 0.833507 60.9521C0.378622 60.3344 0.125 59.5151 0.125 58.6633C0.125 57.8115 0.378622 56.9922 0.833507 56.3745C1.28839 55.7569 1.90981 55.3881 2.56946 55.3442V55.3619ZM53.3536 24.3134H65.2345C65.7295 24.318 66.2032 24.5743 66.5526 25.0265C66.902 25.4787 67.0989 26.0905 67.1007 26.7289V34.0722C67.0971 34.7091 66.8994 35.3186 66.5502 35.7689C66.2009 36.2192 65.7283 36.4743 65.2345 36.4789H53.3536C52.8586 36.4766 52.3843 36.2226 52.0336 35.772C51.6829 35.3214 51.4842 34.7106 51.4806 34.0722V26.7289C51.4824 26.0889 51.6803 25.4759 52.0312 25.0234C52.3821 24.5709 52.8574 24.3157 53.3536 24.3134V24.3134ZM18.7638 24.3134H30.3302C30.8252 24.318 31.2988 24.5743 31.6483 25.0265C31.9977 25.4787 32.1946 26.0905 32.1964 26.7289V34.0722C32.1946 34.7098 31.9974 35.3206 31.6478 35.7714C31.2982 36.2223 30.8246 36.4766 30.3302 36.4789H18.7638C18.2694 36.4766 17.7958 36.2223 17.4462 35.7714C17.0966 35.3206 16.8994 34.7098 16.8976 34.0722V26.7289C16.8994 26.0905 17.0964 25.4787 17.4458 25.0265C17.7952 24.5743 18.2688 24.318 18.7638 24.3134V24.3134ZM36.0587 24.3134H47.6183C48.1145 24.3157 48.5899 24.5709 48.9407 25.0234C49.2916 25.4759 49.4895 26.0889 49.4913 26.7289V34.0722C49.4877 34.7106 49.289 35.3214 48.9384 35.772C48.5877 36.2226 48.1133 36.4766 47.6183 36.4789H36.0587C35.5625 36.4789 35.0864 36.2259 34.7343 35.7751C34.3821 35.3242 34.1824 34.7121 34.1788 34.0722V26.7289C34.1806 26.0889 34.3786 25.4759 34.7294 25.0234C35.0803 24.5709 35.5557 24.3157 36.0519 24.3134H36.0587ZM25.8048 49.1381C25.1759 49.1381 25.1759 46.1496 25.8048 46.1496H66.8204C67.4493 46.1496 67.4493 49.1381 66.8204 49.1381H25.8048ZM17.6017 49.1381C16.9796 49.1381 16.9796 46.1496 17.6017 46.1496H23.6242C24.2394 46.1496 24.2394 49.1381 23.6242 49.1381H17.6017ZM17.5607 42.8878C16.9386 42.8878 16.9386 39.8993 17.5607 39.8993H23.4191C24.0411 39.8993 24.0411 42.8878 23.4191 42.8878H17.5607ZM25.8322 42.8878C25.2033 42.8878 25.2033 39.8993 25.8322 39.8993H66.8478C67.4767 39.8993 67.4767 42.8878 66.8478 42.8878H25.8322ZM71.5236 7.80179H12.4816V53.6957H71.5167V7.80179H71.5236ZM19.8234 3.02375C19.9964 3.02375 20.1656 3.08992 20.3095 3.21391C20.4534 3.3379 20.5655 3.51414 20.6318 3.72032C20.698 3.92651 20.7153 4.15339 20.6816 4.37228C20.6478 4.59117 20.5645 4.79223 20.4421 4.95004C20.3197 5.10784 20.1638 5.21531 19.9941 5.25885C19.8243 5.30239 19.6484 5.28005 19.4885 5.19464C19.3286 5.10924 19.192 4.96461 19.0958 4.77904C18.9997 4.59348 18.9484 4.37532 18.9484 4.15214C18.9484 3.85287 19.0406 3.56586 19.2047 3.35424C19.3687 3.14263 19.5913 3.02375 19.8234 3.02375V3.02375ZM16.7609 3.02375C16.9339 3.02375 17.1031 3.08992 17.247 3.21391C17.3909 3.3379 17.503 3.51414 17.5693 3.72032C17.6355 3.92651 17.6528 4.15339 17.6191 4.37228C17.5853 4.59117 17.502 4.79223 17.3796 4.95004C17.2572 5.10784 17.1013 5.21531 16.9316 5.25885C16.7618 5.30239 16.5859 5.28005 16.426 5.19464C16.2661 5.10924 16.1295 4.96461 16.0333 4.77904C15.9372 4.59348 15.8859 4.37532 15.8859 4.15214C15.8859 3.85287 15.9781 3.56586 16.1421 3.35424C16.3062 3.14263 16.5288 3.02375 16.7609 3.02375V3.02375ZM13.671 3.02375C13.8441 3.02375 14.0133 3.08992 14.1571 3.21391C14.301 3.3379 14.4132 3.51414 14.4794 3.72032C14.5456 3.92651 14.563 4.15339 14.5292 4.37228C14.4954 4.59117 14.4121 4.79223 14.2897 4.95004C14.1674 5.10784 14.0115 5.21531 13.8417 5.25885C13.672 5.30239 13.4961 5.28005 13.3362 5.19464C13.1763 5.10924 13.0396 4.96461 12.9435 4.77904C12.8473 4.59348 12.796 4.37532 12.796 4.15214C12.796 3.85287 12.8882 3.56586 13.0523 3.35424C13.2164 3.14263 13.439 3.02375 13.671 3.02375V3.02375ZM30.132 20.2141V12.095H31.4445L33.6593 16.6174V12.095H35.2999V20.2141H33.9943L31.7863 15.6917V20.2141H30.132ZM37.8908 20.2758C37.7282 20.2731 37.566 20.2554 37.4054 20.223C37.2113 20.1866 37.0239 20.106 36.8517 19.9849C36.6651 19.847 36.5114 19.6458 36.4074 19.4031C36.2771 19.0767 36.2158 18.7119 36.2296 18.3452V14.1049C36.2209 13.7662 36.2699 13.4292 36.3732 13.1176C36.4577 12.8755 36.5867 12.6637 36.7491 12.5005C36.9012 12.3576 37.0729 12.2529 37.255 12.192C37.4305 12.1263 37.6124 12.0937 37.795 12.095C38.2736 12.095 38.6769 12.095 39.0187 12.095L39.9142 12.1567C40.1603 12.1567 40.3859 12.1567 40.5978 12.236V13.9991H38.2804C38.1649 13.9846 38.0496 14.0289 37.9591 14.1226C37.9204 14.1658 37.8903 14.2204 37.8712 14.2818C37.8522 14.3431 37.8448 14.4094 37.8497 14.4752V15.154L40.1261 15.2686V16.9436L37.8497 17.0582V17.6664C37.8473 17.7775 37.8613 17.8882 37.8908 17.9926C37.9215 18.0701 37.969 18.1344 38.0275 18.1777C38.0844 18.2167 38.1476 18.2379 38.212 18.2394H40.5499V20.0026C40.3038 20.0026 40.0304 20.0819 39.7159 20.1083C39.4015 20.1348 39.0939 20.1612 38.7726 20.1789H37.8634L37.8908 20.2758ZM42.382 20.2141L40.9464 12.095H42.6486L43.4279 17.0317L44.3644 12.095H45.7999L46.7296 17.0317L47.5089 12.095H49.2179L47.7755 20.2141H46.1349L45.1163 15.251L44.0431 20.2141H42.382ZM51.5421 20.2758H50.9952C50.8175 20.2758 50.6466 20.2758 50.4757 20.2053L49.9767 20.1083C49.8195 20.1083 49.6691 20.029 49.5187 19.9761V18.2747L50.1408 18.3364H50.8243H51.4669C51.6229 18.34 51.7787 18.3223 51.9318 18.2835C52.0371 18.2637 52.1351 18.2021 52.212 18.1072C52.2444 18.0641 52.2695 18.0129 52.286 17.9568C52.3024 17.9008 52.3098 17.8409 52.3077 17.781V17.6488C52.3108 17.5798 52.2997 17.5109 52.2758 17.449C52.2518 17.3872 52.2157 17.3345 52.171 17.2962C52.0835 17.2084 51.9742 17.1645 51.8634 17.1728H51.4191C50.8814 17.237 50.3435 17.0526 49.9015 16.6526C49.717 16.4072 49.5762 16.1128 49.4888 15.7901C49.4015 15.4673 49.3697 15.1239 49.3956 14.7837V14.4223C49.3798 14.0929 49.422 13.7632 49.5191 13.4578C49.6162 13.1525 49.7656 12.8794 49.9562 12.6592C50.4219 12.2268 50.9901 12.0179 51.5626 12.0685C51.8292 12.0685 52.0822 12.0685 52.3146 12.0685C52.547 12.0685 52.7726 12.1391 52.9982 12.192C53.2238 12.2448 53.3878 12.2889 53.5519 12.3418V14.0168L52.6769 13.9463H51.7882C51.6472 13.9314 51.5054 13.9314 51.3644 13.9463C51.2566 13.9643 51.1561 14.026 51.0773 14.1226C51.0412 14.1736 51.0136 14.2334 50.9959 14.2986C50.9783 14.3637 50.9711 14.4328 50.9747 14.5016V14.6162C50.972 14.6941 50.9829 14.7718 51.0065 14.8435C51.0302 14.9152 51.066 14.9791 51.1115 15.0306C51.2335 15.1388 51.381 15.1887 51.5284 15.1716H52.0822C52.4265 15.1562 52.7681 15.2565 53.0734 15.4625C53.3263 15.6444 53.5329 15.9169 53.6681 16.2471C53.8026 16.5977 53.8705 16.9844 53.8663 17.3755V17.737C53.8915 18.2895 53.7943 18.8398 53.5861 19.3238C53.3988 19.6868 53.1139 19.9475 52.7863 20.0555C52.382 20.2063 51.9629 20.2805 51.5421 20.2758V20.2758ZM39.6066 57.3013H44.3917C44.4991 57.3001 44.6057 57.3264 44.7051 57.3786C44.8046 57.4308 44.8951 57.5079 44.9714 57.6054C45.0476 57.703 45.1082 57.819 45.1495 57.9468C45.1908 58.0747 45.212 58.2118 45.212 58.3504V58.3504C45.2102 58.6294 45.123 58.8962 44.9694 59.0927C44.8157 59.2892 44.6081 59.3994 44.3917 59.3994H39.6066C39.3914 59.3971 39.1855 59.2858 39.0333 59.0896C38.8812 58.8934 38.7949 58.6279 38.7931 58.3504V58.3504C38.7931 58.0721 38.8788 57.8053 39.0314 57.6086C39.1839 57.4118 39.3908 57.3013 39.6066 57.3013V57.3013Z" fill="#FF6147"/>
</g>
<defs>
<clipPath id="clip0_278_658">
<rect width="84" height="62" fill="white"/>
</clipPath>
</defs>
</svg>
